<svg xmlns="http://www.w3.org/2000/svg" xmlns:xlink="http://www.w3.org/1999/xlink" width="600" height="400" viewBox="0 0 2400 1600">
<defs>
  <clipPath id="clip740">
    <rect x="0" y="0" width="2400" height="1600"></rect>
  </clipPath>
</defs>
<path clip-path="url(#clip740)" d="M0 1600 L2400 1600 L2400 0 L0 0  Z" fill="#ffffff" fill-rule="evenodd" fill-opacity="1"></path>
<defs>
  <clipPath id="clip741">
    <rect x="480" y="0" width="1681" height="1600"></rect>
  </clipPath>
</defs>
<path clip-path="url(#clip740)" d="M47.2441 1423.18 L2352.76 1423.18 L2352.76 123.472 L47.2441 123.472  Z" fill="#ffffff" fill-rule="evenodd" fill-opacity="1"></path>
<defs>
  <clipPath id="clip742">
    <rect x="47" y="123" width="2307" height="1301"></rect>
  </clipPath>
</defs>
<polyline clip-path="url(#clip742)" style="stroke:#000000; stroke-linecap:round; stroke-linejoin:round; stroke-width:2; stroke-opacity:0.1; fill:none" points="112.494,1423.18 112.494,123.472 "></polyline>
<polyline clip-path="url(#clip742)" style="stroke:#000000; stroke-linecap:round; stroke-linejoin:round; stroke-width:2; stroke-opacity:0.1; fill:none" points="656.247,1423.18 656.247,123.472 "></polyline>
<polyline clip-path="url(#clip742)" style="stroke:#000000; stroke-linecap:round; stroke-linejoin:round; stroke-width:2; stroke-opacity:0.1; fill:none" points="1200,1423.18 1200,123.472 "></polyline>
<polyline clip-path="url(#clip742)" style="stroke:#000000; stroke-linecap:round; stroke-linejoin:round; stroke-width:2; stroke-opacity:0.1; fill:none" points="1743.75,1423.18 1743.75,123.472 "></polyline>
<polyline clip-path="url(#clip742)" style="stroke:#000000; stroke-linecap:round; stroke-linejoin:round; stroke-width:2; stroke-opacity:0.1; fill:none" points="2287.51,1423.18 2287.51,123.472 "></polyline>
<polyline clip-path="url(#clip740)" style="stroke:#000000; stroke-linecap:round; stroke-linejoin:round; stroke-width:4; stroke-opacity:1; fill:none" points="47.2441,1423.18 2352.76,1423.18 "></polyline>
<polyline clip-path="url(#clip740)" style="stroke:#000000; stroke-linecap:round; stroke-linejoin:round; stroke-width:4; stroke-opacity:1; fill:none" points="112.494,1423.18 112.494,1404.28 "></polyline>
<polyline clip-path="url(#clip740)" style="stroke:#000000; stroke-linecap:round; stroke-linejoin:round; stroke-width:4; stroke-opacity:1; fill:none" points="656.247,1423.18 656.247,1404.28 "></polyline>
<polyline clip-path="url(#clip740)" style="stroke:#000000; stroke-linecap:round; stroke-linejoin:round; stroke-width:4; stroke-opacity:1; fill:none" points="1200,1423.18 1200,1404.28 "></polyline>
<polyline clip-path="url(#clip740)" style="stroke:#000000; stroke-linecap:round; stroke-linejoin:round; stroke-width:4; stroke-opacity:1; fill:none" points="1743.75,1423.18 1743.75,1404.28 "></polyline>
<polyline clip-path="url(#clip740)" style="stroke:#000000; stroke-linecap:round; stroke-linejoin:round; stroke-width:4; stroke-opacity:1; fill:none" points="2287.51,1423.18 2287.51,1404.28 "></polyline>
<path clip-path="url(#clip740)" d="M89.8788 1454.1 Q86.2677 1454.1 84.439 1457.66 Q82.6335 1461.2 82.6335 1468.33 Q82.6335 1475.44 84.439 1479.01 Q86.2677 1482.55 89.8788 1482.55 Q93.513 1482.55 95.3186 1479.01 Q97.1473 1475.44 97.1473 1468.33 Q97.1473 1461.2 95.3186 1457.66 Q93.513 1454.1 89.8788 1454.1 M89.8788 1450.39 Q95.689 1450.39 98.7445 1455 Q101.823 1459.58 101.823 1468.33 Q101.823 1477.06 98.7445 1481.67 Q95.689 1486.25 89.8788 1486.25 Q84.0687 1486.25 80.99 1481.67 Q77.9344 1477.06 77.9344 1468.33 Q77.9344 1459.58 80.99 1455 Q84.0687 1450.39 89.8788 1450.39 Z" fill="#000000" fill-rule="nonzero" fill-opacity="1"></path><path clip-path="url(#clip740)" d="M110.041 1479.7 L114.925 1479.7 L114.925 1485.58 L110.041 1485.58 L110.041 1479.7 Z" fill="#000000" fill-rule="nonzero" fill-opacity="1"></path><path clip-path="url(#clip740)" d="M135.11 1454.1 Q131.499 1454.1 129.67 1457.66 Q127.865 1461.2 127.865 1468.33 Q127.865 1475.44 129.67 1479.01 Q131.499 1482.55 135.11 1482.55 Q138.744 1482.55 140.55 1479.01 Q142.379 1475.44 142.379 1468.33 Q142.379 1461.2 140.55 1457.66 Q138.744 1454.1 135.11 1454.1 M135.11 1450.39 Q140.92 1450.39 143.976 1455 Q147.054 1459.58 147.054 1468.33 Q147.054 1477.06 143.976 1481.67 Q140.92 1486.25 135.11 1486.25 Q129.3 1486.25 126.221 1481.67 Q123.166 1477.06 123.166 1468.33 Q123.166 1459.58 126.221 1455 Q129.3 1450.39 135.11 1450.39 Z" fill="#000000" fill-rule="nonzero" fill-opacity="1"></path><path clip-path="url(#clip740)" d="M627.983 1481.64 L644.303 1481.64 L644.303 1485.58 L622.359 1485.58 L622.359 1481.64 Q625.021 1478.89 629.604 1474.26 Q634.21 1469.61 635.391 1468.27 Q637.636 1465.74 638.516 1464.01 Q639.419 1462.25 639.419 1460.56 Q639.419 1457.8 637.474 1456.07 Q635.553 1454.33 632.451 1454.33 Q630.252 1454.33 627.798 1455.09 Q625.368 1455.86 622.59 1457.41 L622.59 1452.69 Q625.414 1451.55 627.868 1450.97 Q630.321 1450.39 632.358 1450.39 Q637.729 1450.39 640.923 1453.08 Q644.118 1455.77 644.118 1460.26 Q644.118 1462.39 643.307 1464.31 Q642.52 1466.2 640.414 1468.8 Q639.835 1469.47 636.733 1472.69 Q633.632 1475.88 627.983 1481.64 Z" fill="#000000" fill-rule="nonzero" fill-opacity="1"></path><path clip-path="url(#clip740)" d="M654.118 1479.7 L659.002 1479.7 L659.002 1485.58 L654.118 1485.58 L654.118 1479.7 Z" fill="#000000" fill-rule="nonzero" fill-opacity="1"></path><path clip-path="url(#clip740)" d="M669.233 1451.02 L687.59 1451.02 L687.59 1454.96 L673.516 1454.96 L673.516 1463.43 Q674.534 1463.08 675.553 1462.92 Q676.571 1462.73 677.59 1462.73 Q683.377 1462.73 686.756 1465.9 Q690.136 1469.08 690.136 1474.49 Q690.136 1480.07 686.664 1483.17 Q683.192 1486.25 676.872 1486.25 Q674.696 1486.25 672.428 1485.88 Q670.182 1485.51 667.775 1484.77 L667.775 1480.07 Q669.858 1481.2 672.08 1481.76 Q674.303 1482.32 676.78 1482.32 Q680.784 1482.32 683.122 1480.21 Q685.46 1478.1 685.46 1474.49 Q685.46 1470.88 683.122 1468.77 Q680.784 1466.67 676.78 1466.67 Q674.905 1466.67 673.03 1467.08 Q671.178 1467.5 669.233 1468.38 L669.233 1451.02 Z" fill="#000000" fill-rule="nonzero" fill-opacity="1"></path><path clip-path="url(#clip740)" d="M1167.16 1451.02 L1185.52 1451.02 L1185.52 1454.96 L1171.45 1454.96 L1171.45 1463.43 Q1172.47 1463.08 1173.48 1462.92 Q1174.5 1462.73 1175.52 1462.73 Q1181.31 1462.73 1184.69 1465.9 Q1188.07 1469.08 1188.07 1474.49 Q1188.07 1480.07 1184.59 1483.17 Q1181.12 1486.25 1174.8 1486.25 Q1172.63 1486.25 1170.36 1485.88 Q1168.11 1485.51 1165.71 1484.77 L1165.71 1480.07 Q1167.79 1481.2 1170.01 1481.76 Q1172.23 1482.32 1174.71 1482.32 Q1178.72 1482.32 1181.05 1480.21 Q1183.39 1478.1 1183.39 1474.49 Q1183.39 1470.88 1181.05 1468.77 Q1178.72 1466.67 1174.71 1466.67 Q1172.84 1466.67 1170.96 1467.08 Q1169.11 1467.5 1167.16 1468.38 L1167.16 1451.02 Z" fill="#000000" fill-rule="nonzero" fill-opacity="1"></path><path clip-path="url(#clip740)" d="M1197.28 1479.7 L1202.16 1479.7 L1202.16 1485.58 L1197.28 1485.58 L1197.28 1479.7 Z" fill="#000000" fill-rule="nonzero" fill-opacity="1"></path><path clip-path="url(#clip740)" d="M1222.35 1454.1 Q1218.74 1454.1 1216.91 1457.66 Q1215.1 1461.2 1215.1 1468.33 Q1215.1 1475.44 1216.91 1479.01 Q1218.74 1482.55 1222.35 1482.55 Q1225.98 1482.55 1227.79 1479.01 Q1229.62 1475.44 1229.62 1468.33 Q1229.62 1461.2 1227.79 1457.66 Q1225.98 1454.1 1222.35 1454.1 M1222.35 1450.39 Q1228.16 1450.39 1231.22 1455 Q1234.29 1459.58 1234.29 1468.33 Q1234.29 1477.06 1231.22 1481.67 Q1228.16 1486.25 1222.35 1486.25 Q1216.54 1486.25 1213.46 1481.67 Q1210.41 1477.06 1210.41 1468.33 Q1210.41 1459.58 1213.46 1455 Q1216.54 1450.39 1222.35 1450.39 Z" fill="#000000" fill-rule="nonzero" fill-opacity="1"></path><path clip-path="url(#clip740)" d="M1710.07 1451.02 L1732.29 1451.02 L1732.29 1453.01 L1719.75 1485.58 L1714.86 1485.58 L1726.67 1454.96 L1710.07 1454.96 L1710.07 1451.02 Z" fill="#000000" fill-rule="nonzero" fill-opacity="1"></path><path clip-path="url(#clip740)" d="M1741.41 1479.7 L1746.3 1479.7 L1746.3 1485.58 L1741.41 1485.58 L1741.41 1479.7 Z" fill="#000000" fill-rule="nonzero" fill-opacity="1"></path><path clip-path="url(#clip740)" d="M1756.53 1451.02 L1774.89 1451.02 L1774.89 1454.96 L1760.81 1454.96 L1760.81 1463.43 Q1761.83 1463.08 1762.85 1462.92 Q1763.87 1462.73 1764.89 1462.73 Q1770.67 1462.73 1774.05 1465.9 Q1777.43 1469.08 1777.43 1474.49 Q1777.43 1480.07 1773.96 1483.17 Q1770.49 1486.25 1764.17 1486.25 Q1761.99 1486.25 1759.72 1485.88 Q1757.48 1485.51 1755.07 1484.77 L1755.07 1480.07 Q1757.16 1481.2 1759.38 1481.76 Q1761.6 1482.32 1764.08 1482.32 Q1768.08 1482.32 1770.42 1480.21 Q1772.76 1478.1 1772.76 1474.49 Q1772.76 1470.88 1770.42 1468.77 Q1768.08 1466.67 1764.08 1466.67 Q1762.2 1466.67 1760.33 1467.08 Q1758.47 1467.5 1756.53 1468.38 L1756.53 1451.02 Z" fill="#000000" fill-rule="nonzero" fill-opacity="1"></path><path clip-path="url(#clip740)" d="M2239.58 1481.64 L2247.22 1481.64 L2247.22 1455.28 L2238.91 1456.95 L2238.91 1452.69 L2247.17 1451.02 L2251.85 1451.02 L2251.85 1481.64 L2259.48 1481.64 L2259.48 1485.58 L2239.58 1485.58 L2239.58 1481.64 Z" fill="#000000" fill-rule="nonzero" fill-opacity="1"></path><path clip-path="url(#clip740)" d="M2278.93 1454.1 Q2275.32 1454.1 2273.49 1457.66 Q2271.68 1461.2 2271.68 1468.33 Q2271.68 1475.44 2273.49 1479.01 Q2275.32 1482.55 2278.93 1482.55 Q2282.56 1482.55 2284.37 1479.01 Q2286.2 1475.44 2286.2 1468.33 Q2286.2 1461.2 2284.37 1457.66 Q2282.56 1454.1 2278.93 1454.1 M2278.93 1450.39 Q2284.74 1450.39 2287.79 1455 Q2290.87 1459.58 2290.87 1468.33 Q2290.87 1477.06 2287.79 1481.67 Q2284.74 1486.25 2278.93 1486.25 Q2273.12 1486.25 2270.04 1481.67 Q2266.98 1477.06 2266.98 1468.33 Q2266.98 1459.58 2270.04 1455 Q2273.12 1450.39 2278.93 1450.39 Z" fill="#000000" fill-rule="nonzero" fill-opacity="1"></path><path clip-path="url(#clip740)" d="M2299.09 1479.7 L2303.98 1479.7 L2303.98 1485.58 L2299.09 1485.58 L2299.09 1479.7 Z" fill="#000000" fill-rule="nonzero" fill-opacity="1"></path><path clip-path="url(#clip740)" d="M2324.16 1454.1 Q2320.55 1454.1 2318.72 1457.66 Q2316.92 1461.2 2316.92 1468.33 Q2316.92 1475.44 2318.72 1479.01 Q2320.55 1482.55 2324.16 1482.55 Q2327.79 1482.55 2329.6 1479.01 Q2331.43 1475.44 2331.43 1468.33 Q2331.43 1461.2 2329.6 1457.66 Q2327.79 1454.1 2324.16 1454.1 M2324.16 1450.39 Q2329.97 1450.39 2333.03 1455 Q2336.1 1459.58 2336.1 1468.33 Q2336.1 1477.06 2333.03 1481.67 Q2329.97 1486.25 2324.16 1486.25 Q2318.35 1486.25 2315.27 1481.67 Q2312.22 1477.06 2312.22 1468.33 Q2312.22 1459.58 2315.27 1455 Q2318.35 1450.39 2324.16 1450.39 Z" fill="#000000" fill-rule="nonzero" fill-opacity="1"></path><path clip-path="url(#clip740)" d="M1070.17 1520.52 L1110.37 1520.52 L1110.37 1525.93 L1093.5 1525.93 L1093.5 1568.04 L1087.04 1568.04 L1087.04 1525.93 L1070.17 1525.93 L1070.17 1520.52 Z" fill="#000000" fill-rule="nonzero" fill-opacity="1"></path><path clip-path="url(#clip740)" d="M1114.32 1532.4 L1120.17 1532.4 L1120.17 1568.04 L1114.32 1568.04 L1114.32 1532.4 M1114.32 1518.52 L1120.17 1518.52 L1120.17 1525.93 L1114.32 1525.93 L1114.32 1518.52 Z" fill="#000000" fill-rule="nonzero" fill-opacity="1"></path><path clip-path="url(#clip740)" d="M1160.18 1539.24 Q1162.38 1535.29 1165.43 1533.41 Q1168.49 1531.54 1172.63 1531.54 Q1178.2 1531.54 1181.22 1535.45 Q1184.24 1539.33 1184.24 1546.53 L1184.24 1568.04 L1178.36 1568.04 L1178.36 1546.72 Q1178.36 1541.59 1176.54 1539.11 Q1174.73 1536.63 1171 1536.63 Q1166.45 1536.63 1163.81 1539.65 Q1161.17 1542.68 1161.17 1547.9 L1161.17 1568.04 L1155.28 1568.04 L1155.28 1546.72 Q1155.28 1541.56 1153.47 1539.11 Q1151.65 1536.63 1147.86 1536.63 Q1143.38 1536.63 1140.74 1539.68 Q1138.09 1542.71 1138.09 1547.9 L1138.09 1568.04 L1132.21 1568.04 L1132.21 1532.4 L1138.09 1532.4 L1138.09 1537.93 Q1140.1 1534.66 1142.9 1533.1 Q1145.7 1531.54 1149.55 1531.54 Q1153.43 1531.54 1156.14 1533.51 Q1158.88 1535.48 1160.18 1539.24 Z" fill="#000000" fill-rule="nonzero" fill-opacity="1"></path><path clip-path="url(#clip740)" d="M1226.42 1548.76 L1226.42 1551.62 L1199.49 1551.62 Q1199.87 1557.67 1203.12 1560.85 Q1206.4 1564 1212.22 1564 Q1215.6 1564 1218.75 1563.17 Q1221.93 1562.35 1225.05 1560.69 L1225.05 1566.23 Q1221.9 1567.57 1218.59 1568.27 Q1215.28 1568.97 1211.87 1568.97 Q1203.34 1568.97 1198.34 1564 Q1193.38 1559.04 1193.38 1550.57 Q1193.38 1541.82 1198.09 1536.69 Q1202.83 1531.54 1210.85 1531.54 Q1218.05 1531.54 1222.22 1536.18 Q1226.42 1540.8 1226.42 1548.76 M1220.56 1547.04 Q1220.5 1542.23 1217.86 1539.37 Q1215.25 1536.5 1210.92 1536.5 Q1206.02 1536.5 1203.06 1539.27 Q1200.13 1542.04 1199.68 1547.07 L1220.56 1547.04 Z" fill="#000000" fill-rule="nonzero" fill-opacity="1"></path><path clip-path="url(#clip740)" d="M1270.82 1518.58 Q1266.55 1525.9 1264.48 1533.06 Q1262.42 1540.23 1262.42 1547.58 Q1262.42 1554.93 1264.48 1562.16 Q1266.59 1569.35 1270.82 1576.64 L1265.73 1576.64 Q1260.95 1569.16 1258.56 1561.93 Q1256.21 1554.71 1256.21 1547.58 Q1256.21 1540.48 1258.56 1533.29 Q1260.92 1526.09 1265.73 1518.58 L1270.82 1518.58 Z" fill="#000000" fill-rule="nonzero" fill-opacity="1"></path><path clip-path="url(#clip740)" d="M1304.91 1533.45 L1304.91 1538.98 Q1302.42 1537.71 1299.75 1537.07 Q1297.08 1536.44 1294.21 1536.44 Q1289.85 1536.44 1287.66 1537.77 Q1285.49 1539.11 1285.49 1541.79 Q1285.49 1543.82 1287.05 1545 Q1288.61 1546.15 1293.32 1547.2 L1295.33 1547.64 Q1301.56 1548.98 1304.17 1551.43 Q1306.82 1553.85 1306.82 1558.21 Q1306.82 1563.17 1302.87 1566.07 Q1298.95 1568.97 1292.08 1568.97 Q1289.22 1568.97 1286.1 1568.39 Q1283.01 1567.85 1279.57 1566.74 L1279.57 1560.69 Q1282.82 1562.38 1285.97 1563.24 Q1289.12 1564.07 1292.21 1564.07 Q1296.34 1564.07 1298.57 1562.66 Q1300.8 1561.23 1300.8 1558.65 Q1300.8 1556.27 1299.18 1554.99 Q1297.59 1553.72 1292.14 1552.54 L1290.11 1552.07 Q1284.66 1550.92 1282.24 1548.56 Q1279.83 1546.18 1279.83 1542.04 Q1279.83 1537.01 1283.39 1534.27 Q1286.96 1531.54 1293.51 1531.54 Q1296.76 1531.54 1299.62 1532.01 Q1302.49 1532.49 1304.91 1533.45 Z" fill="#000000" fill-rule="nonzero" fill-opacity="1"></path><path clip-path="url(#clip740)" d="M1315.22 1518.58 L1320.31 1518.58 Q1325.09 1526.09 1327.44 1533.29 Q1329.83 1540.48 1329.83 1547.58 Q1329.83 1554.71 1327.44 1561.93 Q1325.09 1569.16 1320.31 1576.64 L1315.22 1576.64 Q1319.45 1569.35 1321.52 1562.16 Q1323.62 1554.93 1323.62 1547.58 Q1323.62 1540.23 1321.52 1533.06 Q1319.45 1525.9 1315.22 1518.58 Z" fill="#000000" fill-rule="nonzero" fill-opacity="1"></path><polyline clip-path="url(#clip740)" style="stroke:#000000; stroke-linecap:round; stroke-linejoin:round; stroke-width:4; stroke-opacity:1; fill:none" points="47.2441,1423.18 47.2441,123.472 "></polyline>
<path clip-path="url(#clip740)" d="M678.669 12.096 L716.909 12.096 L716.909 18.9825 L686.852 18.9825 L686.852 36.8875 L715.654 36.8875 L715.654 43.7741 L686.852 43.7741 L686.852 65.6895 L717.639 65.6895 L717.639 72.576 L678.669 72.576 L678.669 12.096 Z" fill="#000000" fill-rule="nonzero" fill-opacity="1"></path><path clip-path="url(#clip740)" d="M759.687 28.5427 L759.687 35.5912 Q756.527 33.9709 753.125 33.1607 Q749.722 32.3505 746.076 32.3505 Q740.526 32.3505 737.731 34.0519 Q734.976 35.7533 734.976 39.156 Q734.976 41.7486 736.961 43.2475 Q738.946 44.7058 744.942 46.0426 L747.494 46.6097 Q755.434 48.3111 758.755 51.4303 Q762.118 54.509 762.118 60.0587 Q762.118 66.3781 757.094 70.0644 Q752.112 73.7508 743.362 73.7508 Q739.716 73.7508 735.746 73.0216 Q731.817 72.3329 727.442 70.9151 L727.442 63.2184 Q731.574 65.3654 735.584 66.4591 Q739.594 67.5124 743.524 67.5124 Q748.79 67.5124 751.626 65.73 Q754.461 63.9071 754.461 60.6258 Q754.461 57.5877 752.395 55.9673 Q750.37 54.3469 743.443 52.8481 L740.85 52.2405 Q733.923 50.7821 730.845 47.7845 Q727.766 44.7463 727.766 39.4801 Q727.766 33.0797 732.303 29.5959 Q736.84 26.1121 745.185 26.1121 Q749.317 26.1121 752.962 26.7198 Q756.608 27.3274 759.687 28.5427 Z" fill="#000000" fill-rule="nonzero" fill-opacity="1"></path><path clip-path="url(#clip740)" d="M781.359 14.324 L781.359 27.2059 L796.712 27.2059 L796.712 32.9987 L781.359 32.9987 L781.359 57.6282 Q781.359 63.1779 782.858 64.7578 Q784.397 66.3376 789.056 66.3376 L796.712 66.3376 L796.712 72.576 L789.056 72.576 Q780.428 72.576 777.146 69.3758 Q773.865 66.1351 773.865 57.6282 L773.865 32.9987 L768.396 32.9987 L768.396 27.2059 L773.865 27.2059 L773.865 14.324 L781.359 14.324 Z" fill="#000000" fill-rule="nonzero" fill-opacity="1"></path><path clip-path="url(#clip740)" d="M806.515 27.2059 L813.969 27.2059 L813.969 72.576 L806.515 72.576 L806.515 27.2059 M806.515 9.54393 L813.969 9.54393 L813.969 18.9825 L806.515 18.9825 L806.515 9.54393 Z" fill="#000000" fill-rule="nonzero" fill-opacity="1"></path><path clip-path="url(#clip740)" d="M864.889 35.9153 Q867.684 30.8922 871.573 28.5022 Q875.462 26.1121 880.728 26.1121 Q887.817 26.1121 891.665 31.0947 Q895.514 36.0368 895.514 45.1919 L895.514 72.576 L888.02 72.576 L888.02 45.4349 Q888.02 38.913 885.711 35.7533 Q883.402 32.5936 878.662 32.5936 Q872.869 32.5936 869.507 36.4419 Q866.145 40.2903 866.145 46.9338 L866.145 72.576 L858.651 72.576 L858.651 45.4349 Q858.651 38.8725 856.342 35.7533 Q854.033 32.5936 849.212 32.5936 Q843.5 32.5936 840.138 36.4824 Q836.776 40.3308 836.776 46.9338 L836.776 72.576 L829.282 72.576 L829.282 27.2059 L836.776 27.2059 L836.776 34.2544 Q839.328 30.082 842.893 28.0971 Q846.457 26.1121 851.359 26.1121 Q856.301 26.1121 859.744 28.6237 Q863.228 31.1352 864.889 35.9153 Z" fill="#000000" fill-rule="nonzero" fill-opacity="1"></path><path clip-path="url(#clip740)" d="M931 49.7694 Q921.966 49.7694 918.482 51.8354 Q914.999 53.9013 914.999 58.8839 Q914.999 62.8538 917.591 65.2034 Q920.224 67.5124 924.721 67.5124 Q930.919 67.5124 934.646 63.1374 Q938.413 58.7219 938.413 51.4303 L938.413 49.7694 L931 49.7694 M945.867 46.6907 L945.867 72.576 L938.413 72.576 L938.413 65.6895 Q935.861 69.8214 932.053 71.8063 Q928.245 73.7508 922.736 73.7508 Q915.768 73.7508 911.636 69.8619 Q907.545 65.9325 907.545 59.3701 Q907.545 51.7138 912.649 47.825 Q917.794 43.9361 927.962 43.9361 L938.413 43.9361 L938.413 43.2069 Q938.413 38.0623 935.01 35.2672 Q931.648 32.4315 925.531 32.4315 Q921.642 32.4315 917.956 33.3632 Q914.269 34.295 910.867 36.1584 L910.867 29.2718 Q914.958 27.692 918.806 26.9223 Q922.655 26.1121 926.301 26.1121 Q936.144 26.1121 941.005 31.2163 Q945.867 36.3204 945.867 46.6907 Z" fill="#000000" fill-rule="nonzero" fill-opacity="1"></path><path clip-path="url(#clip740)" d="M968.592 14.324 L968.592 27.2059 L983.945 27.2059 L983.945 32.9987 L968.592 32.9987 L968.592 57.6282 Q968.592 63.1779 970.091 64.7578 Q971.63 66.3376 976.289 66.3376 L983.945 66.3376 L983.945 72.576 L976.289 72.576 Q967.66 72.576 964.379 69.3758 Q961.098 66.1351 961.098 57.6282 L961.098 32.9987 L955.629 32.9987 L955.629 27.2059 L961.098 27.2059 L961.098 14.324 L968.592 14.324 Z" fill="#000000" fill-rule="nonzero" fill-opacity="1"></path><path clip-path="url(#clip740)" d="M1032.56 48.0275 L1032.56 51.6733 L998.285 51.6733 Q998.771 59.3701 1002.9 63.421 Q1007.08 67.4314 1014.49 67.4314 Q1018.78 67.4314 1022.79 66.3781 Q1026.84 65.3249 1030.81 63.2184 L1030.81 70.267 Q1026.8 71.9684 1022.59 72.8596 Q1018.38 73.7508 1014.04 73.7508 Q1003.19 73.7508 996.827 67.4314 Q990.507 61.1119 990.507 50.3365 Q990.507 39.1965 996.503 32.6746 Q1002.54 26.1121 1012.75 26.1121 Q1021.9 26.1121 1027.21 32.0264 Q1032.56 37.9003 1032.56 48.0275 M1025.1 45.84 Q1025.02 39.7232 1021.66 36.0774 Q1018.34 32.4315 1012.83 32.4315 Q1006.59 32.4315 1002.82 35.9558 Q999.095 39.4801 998.528 45.8805 L1025.1 45.84 Z" fill="#000000" fill-rule="nonzero" fill-opacity="1"></path><path clip-path="url(#clip740)" d="M1074.64 34.0924 L1074.64 9.54393 L1082.1 9.54393 L1082.1 72.576 L1074.64 72.576 L1074.64 65.7705 Q1072.3 69.8214 1068.69 71.8063 Q1065.13 73.7508 1060.1 73.7508 Q1051.88 73.7508 1046.69 67.1883 Q1041.55 60.6258 1041.55 49.9314 Q1041.55 39.2371 1046.69 32.6746 Q1051.88 26.1121 1060.1 26.1121 Q1065.13 26.1121 1068.69 28.0971 Q1072.3 30.0415 1074.64 34.0924 M1049.25 49.9314 Q1049.25 58.1548 1052.61 62.8538 Q1056.01 67.5124 1061.92 67.5124 Q1067.84 67.5124 1071.24 62.8538 Q1074.64 58.1548 1074.64 49.9314 Q1074.64 41.7081 1071.24 37.0496 Q1067.84 32.3505 1061.92 32.3505 Q1056.01 32.3505 1052.61 37.0496 Q1049.25 41.7081 1049.25 49.9314 Z" fill="#000000" fill-rule="nonzero" fill-opacity="1"></path><path clip-path="url(#clip740)" d="M1160.4 14.0809 L1160.4 22.0612 Q1155.74 19.8332 1151.61 18.7395 Q1147.48 17.6457 1143.63 17.6457 Q1136.95 17.6457 1133.3 20.2383 Q1129.7 22.8309 1129.7 27.611 Q1129.7 31.6214 1132.09 33.6873 Q1134.52 35.7128 1141.24 36.9686 L1146.18 37.9813 Q1155.34 39.7232 1159.67 44.1387 Q1164.05 48.5136 1164.05 55.8863 Q1164.05 64.6767 1158.13 69.2137 Q1152.26 73.7508 1140.88 73.7508 Q1136.58 73.7508 1131.72 72.7785 Q1126.9 71.8063 1121.72 69.9024 L1121.72 61.4765 Q1126.7 64.2716 1131.48 65.6895 Q1136.26 67.1073 1140.88 67.1073 Q1147.89 67.1073 1151.69 64.3527 Q1155.5 61.598 1155.5 56.4939 Q1155.5 52.0379 1152.75 49.5264 Q1150.03 47.0148 1143.79 45.759 L1138.81 44.7868 Q1129.66 42.9639 1125.56 39.075 Q1121.47 35.1862 1121.47 28.2591 Q1121.47 20.2383 1127.1 15.6203 Q1132.78 11.0023 1142.7 11.0023 Q1146.95 11.0023 1151.37 11.7719 Q1155.78 12.5416 1160.4 14.0809 Z" fill="#000000" fill-rule="nonzero" fill-opacity="1"></path><path clip-path="url(#clip740)" d="M1194.07 32.4315 Q1188.07 32.4315 1184.59 37.1306 Q1181.1 41.7891 1181.1 49.9314 Q1181.1 58.0738 1184.55 62.7728 Q1188.03 67.4314 1194.07 67.4314 Q1200.02 67.4314 1203.5 62.7323 Q1206.99 58.0333 1206.99 49.9314 Q1206.99 41.8701 1203.5 37.1711 Q1200.02 32.4315 1194.07 32.4315 M1194.07 26.1121 Q1203.79 26.1121 1209.34 32.4315 Q1214.89 38.7509 1214.89 49.9314 Q1214.89 61.0714 1209.34 67.4314 Q1203.79 73.7508 1194.07 73.7508 Q1184.3 73.7508 1178.75 67.4314 Q1173.24 61.0714 1173.24 49.9314 Q1173.24 38.7509 1178.75 32.4315 Q1184.3 26.1121 1194.07 26.1121 Z" fill="#000000" fill-rule="nonzero" fill-opacity="1"></path><path clip-path="url(#clip740)" d="M1226.47 54.671 L1226.47 27.2059 L1233.93 27.2059 L1233.93 54.3874 Q1233.93 60.8284 1236.44 64.0691 Q1238.95 67.2693 1243.97 67.2693 Q1250.01 67.2693 1253.49 63.421 Q1257.02 59.5726 1257.02 52.9291 L1257.02 27.2059 L1264.47 27.2059 L1264.47 72.576 L1257.02 72.576 L1257.02 65.6084 Q1254.3 69.7404 1250.7 71.7658 Q1247.13 73.7508 1242.39 73.7508 Q1234.57 73.7508 1230.52 68.8897 Q1226.47 64.0286 1226.47 54.671 M1245.23 26.1121 L1245.23 26.1121 Z" fill="#000000" fill-rule="nonzero" fill-opacity="1"></path><path clip-path="url(#clip740)" d="M1306.11 34.1734 Q1304.86 33.4443 1303.36 33.1202 Q1301.9 32.7556 1300.12 32.7556 Q1293.8 32.7556 1290.4 36.8875 Q1287.03 40.9789 1287.03 48.6757 L1287.03 72.576 L1279.54 72.576 L1279.54 27.2059 L1287.03 27.2059 L1287.03 34.2544 Q1289.38 30.1225 1293.15 28.1376 Q1296.92 26.1121 1302.31 26.1121 Q1303.08 26.1121 1304.01 26.2337 Q1304.94 26.3147 1306.07 26.5172 L1306.11 34.1734 Z" fill="#000000" fill-rule="nonzero" fill-opacity="1"></path><path clip-path="url(#clip740)" d="M1344.76 28.9478 L1344.76 35.9153 Q1341.6 34.1734 1338.4 33.3227 Q1335.24 32.4315 1332 32.4315 Q1324.75 32.4315 1320.74 37.0496 Q1316.73 41.6271 1316.73 49.9314 Q1316.73 58.2358 1320.74 62.8538 Q1324.75 67.4314 1332 67.4314 Q1335.24 67.4314 1338.4 66.5807 Q1341.6 65.6895 1344.76 63.9476 L1344.76 70.8341 Q1341.64 72.2924 1338.28 73.0216 Q1334.96 73.7508 1331.19 73.7508 Q1320.94 73.7508 1314.9 67.3098 Q1308.87 60.8689 1308.87 49.9314 Q1308.87 38.832 1314.94 32.472 Q1321.06 26.1121 1331.67 26.1121 Q1335.12 26.1121 1338.4 26.8413 Q1341.68 27.5299 1344.76 28.9478 Z" fill="#000000" fill-rule="nonzero" fill-opacity="1"></path><path clip-path="url(#clip740)" d="M1396.53 48.0275 L1396.53 51.6733 L1362.26 51.6733 Q1362.75 59.3701 1366.88 63.421 Q1371.05 67.4314 1378.46 67.4314 Q1382.76 67.4314 1386.77 66.3781 Q1390.82 65.3249 1394.79 63.2184 L1394.79 70.267 Q1390.78 71.9684 1386.56 72.8596 Q1382.35 73.7508 1378.02 73.7508 Q1367.16 73.7508 1360.8 67.4314 Q1354.48 61.1119 1354.48 50.3365 Q1354.48 39.1965 1360.48 32.6746 Q1366.51 26.1121 1376.72 26.1121 Q1385.88 26.1121 1391.18 32.0264 Q1396.53 37.9003 1396.53 48.0275 M1389.08 45.84 Q1388.99 39.7232 1385.63 36.0774 Q1382.31 32.4315 1376.8 32.4315 Q1370.56 32.4315 1366.8 35.9558 Q1363.07 39.4801 1362.5 45.8805 L1389.08 45.84 Z" fill="#000000" fill-rule="nonzero" fill-opacity="1"></path><path clip-path="url(#clip740)" d="M1471.71 14.0809 L1471.71 22.0612 Q1467.06 19.8332 1462.92 18.7395 Q1458.79 17.6457 1454.94 17.6457 Q1448.26 17.6457 1444.61 20.2383 Q1441.01 22.8309 1441.01 27.611 Q1441.01 31.6214 1443.4 33.6873 Q1445.83 35.7128 1452.55 36.9686 L1457.5 37.9813 Q1466.65 39.7232 1470.99 44.1387 Q1475.36 48.5136 1475.36 55.8863 Q1475.36 64.6767 1469.45 69.2137 Q1463.57 73.7508 1452.19 73.7508 Q1447.9 73.7508 1443.03 72.7785 Q1438.21 71.8063 1433.03 69.9024 L1433.03 61.4765 Q1438.01 64.2716 1442.79 65.6895 Q1447.57 67.1073 1452.19 67.1073 Q1459.2 67.1073 1463 64.3527 Q1466.81 61.598 1466.81 56.4939 Q1466.81 52.0379 1464.06 49.5264 Q1461.34 47.0148 1455.11 45.759 L1450.12 44.7868 Q1440.97 42.9639 1436.88 39.075 Q1432.79 35.1862 1432.79 28.2591 Q1432.79 20.2383 1438.42 15.6203 Q1444.09 11.0023 1454.01 11.0023 Q1458.27 11.0023 1462.68 11.7719 Q1467.1 12.5416 1471.71 14.0809 Z" fill="#000000" fill-rule="nonzero" fill-opacity="1"></path><path clip-path="url(#clip740)" d="M1487.8 27.2059 L1495.25 27.2059 L1495.25 72.576 L1487.8 72.576 L1487.8 27.2059 M1487.8 9.54393 L1495.25 9.54393 L1495.25 18.9825 L1487.8 18.9825 L1487.8 9.54393 Z" fill="#000000" fill-rule="nonzero" fill-opacity="1"></path><path clip-path="url(#clip740)" d="M1540.7 49.3643 Q1540.7 41.2625 1537.34 36.8065 Q1534.02 32.3505 1527.98 32.3505 Q1521.99 32.3505 1518.62 36.8065 Q1515.3 41.2625 1515.3 49.3643 Q1515.3 57.4256 1518.62 61.8816 Q1521.99 66.3376 1527.98 66.3376 Q1534.02 66.3376 1537.34 61.8816 Q1540.7 57.4256 1540.7 49.3643 M1548.15 66.9452 Q1548.15 78.5308 1543.01 84.1616 Q1537.87 89.8329 1527.25 89.8329 Q1523.32 89.8329 1519.84 89.2252 Q1516.36 88.6581 1513.07 87.4428 L1513.07 80.1917 Q1516.36 81.9741 1519.56 82.8248 Q1522.76 83.6755 1526.08 83.6755 Q1533.41 83.6755 1537.06 79.8271 Q1540.7 76.0193 1540.7 68.282 L1540.7 64.5957 Q1538.39 68.6061 1534.79 70.5911 Q1531.18 72.576 1526.16 72.576 Q1517.81 72.576 1512.71 66.2161 Q1507.61 59.8562 1507.61 49.3643 Q1507.61 38.832 1512.71 32.472 Q1517.81 26.1121 1526.16 26.1121 Q1531.18 26.1121 1534.79 28.0971 Q1538.39 30.082 1540.7 34.0924 L1540.7 27.2059 L1548.15 27.2059 L1548.15 66.9452 Z" fill="#000000" fill-rule="nonzero" fill-opacity="1"></path><path clip-path="url(#clip740)" d="M1601.22 45.1919 L1601.22 72.576 L1593.77 72.576 L1593.77 45.4349 Q1593.77 38.994 1591.26 35.7938 Q1588.75 32.5936 1583.72 32.5936 Q1577.69 32.5936 1574.2 36.4419 Q1570.72 40.2903 1570.72 46.9338 L1570.72 72.576 L1563.22 72.576 L1563.22 27.2059 L1570.72 27.2059 L1570.72 34.2544 Q1573.39 30.163 1577 28.1376 Q1580.64 26.1121 1585.38 26.1121 Q1593.2 26.1121 1597.21 30.9732 Q1601.22 35.7938 1601.22 45.1919 Z" fill="#000000" fill-rule="nonzero" fill-opacity="1"></path><path clip-path="url(#clip740)" d="M1636.71 49.7694 Q1627.67 49.7694 1624.19 51.8354 Q1620.71 53.9013 1620.71 58.8839 Q1620.71 62.8538 1623.3 65.2034 Q1625.93 67.5124 1630.43 67.5124 Q1636.63 67.5124 1640.35 63.1374 Q1644.12 58.7219 1644.12 51.4303 L1644.12 49.7694 L1636.71 49.7694 M1651.57 46.6907 L1651.57 72.576 L1644.12 72.576 L1644.12 65.6895 Q1641.57 69.8214 1637.76 71.8063 Q1633.95 73.7508 1628.44 73.7508 Q1621.48 73.7508 1617.34 69.8619 Q1613.25 65.9325 1613.25 59.3701 Q1613.25 51.7138 1618.36 47.825 Q1623.5 43.9361 1633.67 43.9361 L1644.12 43.9361 L1644.12 43.2069 Q1644.12 38.0623 1640.72 35.2672 Q1637.36 32.4315 1631.24 32.4315 Q1627.35 32.4315 1623.66 33.3632 Q1619.98 34.295 1616.57 36.1584 L1616.57 29.2718 Q1620.67 27.692 1624.51 26.9223 Q1628.36 26.1121 1632.01 26.1121 Q1641.85 26.1121 1646.71 31.2163 Q1651.57 36.3204 1651.57 46.6907 Z" fill="#000000" fill-rule="nonzero" fill-opacity="1"></path><path clip-path="url(#clip740)" d="M1666.93 9.54393 L1674.38 9.54393 L1674.38 72.576 L1666.93 72.576 L1666.93 9.54393 Z" fill="#000000" fill-rule="nonzero" fill-opacity="1"></path><path clip-path="url(#clip740)" d="M1718.9 28.5427 L1718.9 35.5912 Q1715.74 33.9709 1712.34 33.1607 Q1708.94 32.3505 1705.29 32.3505 Q1699.74 32.3505 1696.94 34.0519 Q1694.19 35.7533 1694.19 39.156 Q1694.19 41.7486 1696.18 43.2475 Q1698.16 44.7058 1704.16 46.0426 L1706.71 46.6097 Q1714.65 48.3111 1717.97 51.4303 Q1721.33 54.509 1721.33 60.0587 Q1721.33 66.3781 1716.31 70.0644 Q1711.33 73.7508 1702.58 73.7508 Q1698.93 73.7508 1694.96 73.0216 Q1691.03 72.3329 1686.66 70.9151 L1686.66 63.2184 Q1690.79 65.3654 1694.8 66.4591 Q1698.81 67.5124 1702.74 67.5124 Q1708 67.5124 1710.84 65.73 Q1713.67 63.9071 1713.67 60.6258 Q1713.67 57.5877 1711.61 55.9673 Q1709.58 54.3469 1702.66 52.8481 L1700.06 52.2405 Q1693.14 50.7821 1690.06 47.7845 Q1686.98 44.7463 1686.98 39.4801 Q1686.98 33.0797 1691.52 29.5959 Q1696.05 26.1121 1704.4 26.1121 Q1708.53 26.1121 1712.18 26.7198 Q1715.82 27.3274 1718.9 28.5427 Z" fill="#000000" fill-rule="nonzero" fill-opacity="1"></path><polyline clip-path="url(#clip742)" style="stroke:#009af9; stroke-linecap:round; stroke-linejoin:round; stroke-width:4; stroke-opacity:1; fill:none" points="112.494,552.862 114.672,389.709 116.849,377.588 119.026,365.529 121.203,353.562 123.38,341.717 125.558,330.024 127.735,318.513 129.912,307.213 132.089,296.153 134.266,285.36 136.444,274.862 138.621,264.685 140.798,254.856 142.975,245.399 145.152,236.338 147.329,227.696 149.507,219.494 151.684,211.754 153.861,204.496 156.038,197.737 158.215,191.494 160.393,185.785 162.57,180.622 164.747,176.019 166.924,171.987 169.101,168.538 171.279,165.679 173.456,163.418 175.633,161.76 177.81,160.71 179.987,160.271 182.164,160.443 184.342,161.226 186.519,464.623 188.696,466.621 190.873,469.219 193.05,472.411 195.228,476.189 197.405,480.543 199.582,485.463 201.759,490.935 203.936,496.946 206.114,503.481 208.291,510.523 210.468,518.055 212.645,526.057 214.822,534.509 216.999,543.39 219.177,552.676 221.354,562.346 223.531,572.374 225.708,582.734 227.885,593.401 230.063,604.348 232.24,615.547 234.417,626.969 236.594,638.586 238.771,650.368 240.949,662.285 243.126,674.308 245.303,686.405 247.48,698.547 249.657,710.702 251.834,722.84 254.012,734.93 256.189,746.941 258.366,456.838 260.543,468.601 262.72,480.195 264.898,491.591 267.075,502.76 269.252,513.673 271.429,524.303 273.606,534.624 275.784,544.608 277.961,554.231 280.138,563.468 282.315,572.296 284.492,580.693 286.669,588.637 288.847,596.109 291.024,603.089 293.201,609.559 295.378,615.504 297.555,620.908 299.733,625.757 301.91,630.04 304.087,633.745 306.264,636.864 308.441,639.387 310.619,641.309 312.796,642.625 314.973,643.332 317.15,643.428 319.327,642.912 321.505,641.786 323.682,640.053 325.859,637.716 328.036,634.783 330.213,933.265 332.39,929.162 334.568,924.488 336.745,919.256 338.922,913.479 341.099,907.171 343.276,900.349 345.454,893.029 347.631,885.23 349.808,876.973 351.985,868.277 354.162,859.165 356.34,849.66 358.517,839.786 360.694,829.568 362.871,819.032 365.048,808.204 367.225,797.112 369.403,785.784 371.58,774.249 373.757,762.535 375.934,750.673 378.111,738.693 380.289,726.625 382.466,714.498 384.643,702.345 386.82,690.196 388.997,678.082 391.175,666.032 393.352,654.079 395.529,642.251 397.706,630.579 399.883,619.093 402.06,607.822 404.238,294.788 406.415,284.031 408.592,273.572 410.769,263.437 412.946,253.653 415.124,244.244 417.301,235.234 419.478,226.646 421.655,218.501 423.832,210.82 426.01,203.623 428.187,196.928 430.364,190.751 432.541,185.109 434.718,180.015 436.895,175.483 439.073,171.524 441.25,168.148 443.427,165.363 445.604,163.177 447.781,161.595 449.959,160.622 452.136,160.259 454.313,160.507 456.49,161.366 458.667,162.835 460.845,164.908 463.022,167.58 465.199,170.846 467.376,174.697 469.553,179.122 471.731,184.112 473.908,189.652 476.085,497.735 478.262,504.334 480.439,511.439 482.616,519.03 484.794,527.089 486.971,535.596 489.148,544.529 491.325,553.865 493.502,563.58 495.68,573.651 497.857,584.051 500.034,594.755 502.211,605.735 504.388,616.963 506.566,628.411 508.743,640.05 510.92,651.85 513.097,663.783 515.274,675.816 517.451,687.921 519.629,700.066 521.806,712.221 523.983,724.354 526.16,736.436 528.337,748.435 530.515,760.322 532.692,772.065 534.869,783.636 537.046,795.005 539.223,806.143 541.401,817.023 543.578,827.616 545.755,837.895 547.932,545.831 550.109,555.407 552.286,564.594 554.464,573.37 556.641,581.711 558.818,589.598 560.995,597.009 563.172,603.926 565.35,610.331 567.527,616.209 569.704,621.545 571.881,626.324 574.058,630.535 576.236,634.167 578.413,637.212 580.59,639.66 582.767,641.507 584.944,642.747 587.121,643.378 589.299,643.397 591.476,642.804 593.653,641.602 595.83,639.793 598.007,637.382 600.185,634.375 602.362,630.779 604.539,626.604 606.716,621.86 608.893,616.559 611.071,610.714 613.248,604.341 615.425,597.456 617.602,590.075 619.779,582.218 621.956,875.909 624.134,867.16 626.311,857.998 628.488,848.445 630.665,838.527 632.842,828.268 635.02,817.693 637.197,806.831 639.374,795.708 641.551,784.353 643.728,772.794 645.906,761.06 648.083,749.182 650.26,737.189 652.437,725.111 654.614,712.98 656.792,700.826 658.969,688.679 661.146,676.571 663.323,664.532 665.5,652.593 667.677,640.783 669.855,629.133 672.032,617.672 674.209,606.429 676.386,595.433 678.563,584.712 680.741,574.292 682.918,564.2 685.095,554.461 687.272,545.101 689.449,536.142 691.627,527.608 693.804,217.515 695.981,209.894 698.158,202.759 700.335,196.127 702.512,190.016 704.69,184.442 706.867,179.418 709.044,174.957 711.221,171.07 713.398,167.767 715.576,165.057 717.753,162.946 719.93,161.44 722.107,160.543 724.284,160.256 726.462,160.581 728.639,161.517 730.816,163.061 732.993,165.209 735.17,167.956 737.347,171.296 739.525,175.219 741.702,179.715 743.879,184.774 746.056,190.383 748.233,196.527 750.411,203.19 752.588,210.356 754.765,218.007 756.942,226.124 759.119,234.685 761.297,243.669 763.474,253.054 765.651,564.82 767.828,574.934 770.005,585.373 772.182,596.113 774.36,607.125 776.537,618.382 778.714,629.856 780.891,641.517 783.068,653.335 785.246,665.282 787.423,677.326 789.6,689.438 791.777,701.586 793.954,713.739 796.132,725.868 798.309,737.941 800.486,749.928 802.663,761.798 804.84,773.522 807.018,785.069 809.195,796.411 811.372,807.518 813.549,818.363 815.726,828.918 817.903,839.157 820.081,849.053 822.258,858.582 824.435,867.719 826.612,876.442 828.789,884.727 830.967,892.555 833.144,899.906 835.321,906.76 837.498,913.1 839.675,616.906 841.853,622.173 844.03,626.882 846.207,631.021 848.384,634.58 850.561,637.55 852.738,639.924 854.916,641.695 857.093,642.859 859.27,643.413 861.447,643.356 863.624,642.688 865.802,641.409 867.979,639.525 870.156,637.039 872.333,633.957 874.51,630.289 876.688,626.042 878.865,621.227 881.042,615.858 883.219,609.946 885.396,603.508 887.573,596.56 889.751,589.118 891.928,581.203 894.105,572.834 896.282,564.032 898.459,554.82 900.637,545.22 902.814,535.258 904.991,524.958 907.168,514.346 909.345,503.449 911.523,794.301 913.7,782.918 915.877,771.336 918.054,759.583 920.231,747.688 922.408,735.683 924.586,723.597 926.763,711.461 928.94,699.307 931.117,687.163 933.294,675.062 935.472,663.034 937.649,651.109 939.826,639.317 942.003,627.689 944.18,616.254 946.358,605.041 948.535,594.077 950.712,583.392 952.889,573.012 955.066,562.962 957.244,553.27 959.421,543.958 961.598,535.052 963.775,526.572 965.952,518.542 968.129,510.98 970.307,503.907 972.484,497.339 974.661,491.295 976.838,485.789 979.015,480.834 981.193,476.444 983.37,170.625 985.547,167.396 987.724,164.76 989.901,162.725 992.079,161.295 994.256,160.474 996.433,160.263 998.61,160.665 1000.79,161.677 1002.96,163.296 1005.14,165.52 1007.32,168.342 1009.5,171.754 1011.67,175.75 1013.85,180.317 1016.03,185.446 1018.2,191.122 1020.38,197.331 1022.56,204.059 1024.74,211.286 1026.91,218.997 1029.09,227.17 1031.27,235.785 1033.45,244.821 1035.62,254.254 1037.8,264.061 1039.98,274.216 1042.15,284.695 1044.33,295.47 1046.51,306.514 1048.69,317.8 1050.86,329.299 1053.04,340.981 1055.22,654.822 1057.39,666.783 1059.57,678.837 1061.75,690.955 1063.93,703.105 1066.1,715.257 1068.28,727.381 1070.46,739.445 1072.63,751.419 1074.81,763.272 1076.99,774.975 1079.17,786.498 1081.34,797.812 1083.52,808.889 1085.7,819.699 1087.87,830.216 1090.05,840.413 1092.23,850.265 1094.41,859.746 1096.58,868.833 1098.76,877.502 1100.94,885.731 1103.12,893.501 1105.29,900.79 1107.47,907.581 1109.65,913.856 1111.82,919.599 1114,924.797 1116.18,929.435 1118.36,933.503 1120.53,936.989 1122.71,939.885 1124.89,942.184 1127.06,943.879 1129.24,642.962 1131.42,643.44 1133.6,643.306 1135.77,642.561 1137.95,641.207 1140.13,639.247 1142.3,636.686 1144.48,633.531 1146.66,629.789 1148.84,625.471 1151.01,620.586 1153.19,615.148 1155.37,609.17 1157.54,602.667 1159.72,595.656 1161.9,588.155 1164.08,580.181 1166.25,571.757 1168.43,562.903 1170.61,553.64 1172.79,543.994 1174.96,533.988 1177.14,523.648 1179.32,512.999 1181.49,502.069 1183.67,490.885 1185.85,479.476 1188.03,467.871 1190.2,456.098 1192.38,444.188 1194.56,432.171 1196.73,420.077 1198.91,407.938 1201.09,697.787 1203.27,685.647 1205.44,673.554 1207.62,661.537 1209.8,649.627 1211.97,637.854 1214.15,626.249 1216.33,614.84 1218.51,603.656 1220.68,592.726 1222.86,582.077 1225.04,571.737 1227.21,561.731 1229.39,552.084 1231.57,542.822 1233.75,533.968 1235.92,525.543 1238.1,517.57 1240.28,510.069 1242.46,503.058 1244.63,496.555 1246.81,490.577 1248.99,485.139 1251.16,480.254 1253.34,475.936 1255.52,472.194 1257.7,469.039 1259.87,466.478 1262.05,464.518 1264.23,463.164 1266.4,462.419 1268.58,462.285 1270.76,462.763 1272.94,161.846 1275.11,163.541 1277.29,165.84 1279.47,168.736 1281.64,172.222 1283.82,176.29 1286,180.928 1288.18,186.126 1290.35,191.869 1292.53,198.144 1294.71,204.935 1296.88,212.224 1299.06,219.993 1301.24,228.223 1303.42,236.892 1305.59,245.979 1307.77,255.46 1309.95,265.312 1312.13,275.509 1314.3,286.026 1316.48,296.836 1318.66,307.913 1320.83,319.227 1323.01,330.75 1325.19,342.453 1327.37,354.306 1329.54,366.28 1331.72,378.344 1333.9,390.467 1336.07,402.62 1338.25,414.77 1340.43,426.888 1342.61,438.942 1344.78,450.903 1346.96,764.744 1349.14,776.426 1351.31,787.925 1353.49,799.21 1355.67,810.255 1357.85,821.03 1360.02,831.509 1362.2,841.664 1364.38,851.471 1366.55,860.904 1368.73,869.94 1370.91,878.555 1373.09,886.728 1375.26,894.438 1377.44,901.666 1379.62,908.394 1381.8,914.603 1383.97,920.279 1386.15,925.408 1388.33,929.975 1390.5,933.97 1392.68,937.383 1394.86,940.205 1397.04,942.429 1399.21,944.048 1401.39,945.06 1403.57,945.461 1405.74,945.251 1407.92,944.43 1410.1,943 1412.28,940.964 1414.45,938.329 1416.63,935.1 1418.81,629.281 1420.98,624.891 1423.16,619.936 1425.34,614.43 1427.52,608.385 1429.69,601.818 1431.87,594.745 1434.05,587.183 1436.22,579.153 1438.4,570.673 1440.58,561.767 1442.76,552.455 1444.93,542.763 1447.11,532.713 1449.29,522.333 1451.47,511.647 1453.64,500.684 1455.82,489.471 1458,478.036 1460.17,466.408 1462.35,454.616 1464.53,442.691 1466.71,430.663 1468.88,418.562 1471.06,406.418 1473.24,394.263 1475.41,382.128 1477.59,370.042 1479.77,358.037 1481.95,346.142 1484.12,334.389 1486.3,322.806 1488.48,311.424 1490.65,602.275 1492.83,591.379 1495.01,580.767 1497.19,570.467 1499.36,560.505 1501.54,550.905 1503.72,541.693 1505.89,532.891 1508.07,524.522 1510.25,516.606 1512.43,509.165 1514.6,502.217 1516.78,495.779 1518.96,489.867 1521.14,484.498 1523.31,479.683 1525.49,475.436 1527.67,471.767 1529.84,468.686 1532.02,466.2 1534.2,464.316 1536.38,463.037 1538.55,462.369 1540.73,462.311 1542.91,462.866 1545.08,464.03 1547.26,465.801 1549.44,468.174 1551.62,471.145 1553.79,474.704 1555.97,478.843 1558.15,483.552 1560.32,488.819 1562.5,494.63 1564.68,198.965 1566.86,205.819 1569.03,213.17 1571.21,220.997 1573.39,229.283 1575.56,238.006 1577.74,247.143 1579.92,256.672 1582.1,266.568 1584.27,276.807 1586.45,287.362 1588.63,298.207 1590.81,309.314 1592.98,320.656 1595.16,332.203 1597.34,343.927 1599.51,355.797 1601.69,367.784 1603.87,379.857 1606.05,391.986 1608.22,404.139 1610.4,416.287 1612.58,428.399 1614.75,440.443 1616.93,452.389 1619.11,464.208 1621.29,475.869 1623.46,487.343 1625.64,498.6 1627.82,509.612 1629.99,520.352 1632.17,530.791 1634.35,540.905 1636.53,852.671 1638.7,862.056 1640.88,871.04 1643.06,879.601 1645.24,887.718 1647.41,895.369 1649.59,902.535 1651.77,909.198 1653.94,915.342 1656.12,920.95 1658.3,926.009 1660.48,930.506 1662.65,934.429 1664.83,937.768 1667.01,940.516 1669.18,942.664 1671.36,944.208 1673.54,945.144 1675.72,945.469 1677.89,945.182 1680.07,944.284 1682.25,942.778 1684.42,940.668 1686.6,937.958 1688.78,934.655 1690.96,930.768 1693.13,926.307 1695.31,921.283 1697.49,915.708 1699.66,909.598 1701.84,902.966 1704.02,895.831 1706.2,888.21 1708.37,578.117 1710.55,569.583 1712.73,560.624 1714.91,551.264 1717.08,541.525 1719.26,531.433 1721.44,521.013 1723.61,510.292 1725.79,499.296 1727.97,488.053 1730.15,476.592 1732.32,464.942 1734.5,453.132 1736.68,441.193 1738.85,429.154 1741.03,417.046 1743.21,404.899 1745.39,392.745 1747.56,380.614 1749.74,368.536 1751.92,356.543 1754.09,344.665 1756.27,332.931 1758.45,321.372 1760.63,310.017 1762.8,298.894 1764.98,288.031 1767.16,277.457 1769.33,267.198 1771.51,257.28 1773.69,247.727 1775.87,238.565 1778.04,229.816 1780.22,523.507 1782.4,515.65 1784.58,508.269 1786.75,501.384 1788.93,495.011 1791.11,489.166 1793.28,483.865 1795.46,479.121 1797.64,474.946 1799.82,471.35 1801.99,468.343 1804.17,465.931 1806.35,464.123 1808.52,462.92 1810.7,462.328 1812.88,462.347 1815.06,462.978 1817.23,464.218 1819.41,466.065 1821.59,468.513 1823.76,471.558 1825.94,475.19 1828.12,479.401 1830.3,484.18 1832.47,489.516 1834.65,495.394 1836.83,501.799 1839,508.716 1841.18,516.127 1843.36,524.013 1845.54,532.355 1847.71,541.13 1849.89,550.318 1852.07,559.894 1854.25,267.829 1856.42,278.109 1858.6,288.702 1860.78,299.582 1862.95,310.72 1865.13,322.089 1867.31,333.66 1869.49,345.403 1871.66,357.29 1873.84,369.289 1876.02,381.371 1878.19,393.504 1880.37,405.659 1882.55,417.804 1884.73,429.908 1886.9,441.942 1889.08,453.874 1891.26,465.675 1893.43,477.314 1895.61,488.762 1897.79,499.99 1899.97,510.97 1902.14,521.674 1904.32,532.074 1906.5,542.145 1908.67,551.86 1910.85,561.196 1913.03,570.129 1915.21,578.636 1917.38,586.695 1919.56,594.286 1921.74,601.391 1923.92,607.99 1926.09,916.073 1928.27,921.613 1930.45,926.602 1932.62,931.028 1934.8,934.879 1936.98,938.144 1939.16,940.817 1941.33,942.89 1943.51,944.358 1945.69,945.218 1947.86,945.466 1950.04,945.103 1952.22,944.129 1954.4,942.548 1956.57,940.362 1958.75,937.577 1960.93,934.201 1963.1,930.242 1965.28,925.71 1967.46,920.616 1969.64,914.974 1971.81,908.797 1973.99,902.102 1976.17,894.904 1978.34,887.224 1980.52,879.079 1982.7,870.491 1984.88,861.481 1987.05,852.072 1989.23,842.288 1991.41,832.153 1993.59,821.694 1995.76,810.937 1997.94,497.903 2000.12,486.632 2002.29,475.145 2004.47,463.474 2006.65,451.646 2008.83,439.693 2011,427.643 2013.18,415.529 2015.36,403.38 2017.53,391.226 2019.71,379.1 2021.89,367.032 2024.07,355.051 2026.24,343.19 2028.42,331.476 2030.6,319.941 2032.77,308.613 2034.95,297.521 2037.13,286.693 2039.31,276.157 2041.48,265.939 2043.66,256.065 2045.84,246.56 2048.01,237.448 2050.19,228.752 2052.37,220.495 2054.55,212.696 2056.72,205.376 2058.9,198.554 2061.08,192.246 2063.26,186.469 2065.43,181.237 2067.61,176.563 2069.79,172.46 2071.96,470.942 2074.14,468.009 2076.32,465.672 2078.5,463.939 2080.67,462.813 2082.85,462.297 2085.03,462.393 2087.2,463.099 2089.38,464.416 2091.56,466.338 2093.74,468.861 2095.91,471.98 2098.09,475.685 2100.27,479.968 2102.44,484.817 2104.62,490.221 2106.8,496.166 2108.98,502.636 2111.15,509.616 2113.33,517.087 2115.51,525.032 2117.68,533.429 2119.86,542.257 2122.04,551.494 2124.22,561.117 2126.39,571.101 2128.57,581.422 2130.75,592.052 2132.93,602.965 2135.1,614.134 2137.28,625.53 2139.46,637.124 2141.63,648.887 2143.81,358.784 2145.99,370.795 2148.17,382.885 2150.34,395.023 2152.52,407.178 2154.7,419.32 2156.87,431.417 2159.05,443.44 2161.23,455.357 2163.41,467.139 2165.58,478.756 2167.76,490.178 2169.94,501.377 2172.11,512.324 2174.29,522.991 2176.47,533.351 2178.65,543.379 2180.82,553.049 2183,562.335 2185.18,571.216 2187.35,579.668 2189.53,587.67 2191.71,595.201 2193.89,602.244 2196.06,608.779 2198.24,614.79 2200.42,620.262 2202.6,625.182 2204.77,629.536 2206.95,633.314 2209.13,636.506 2211.3,639.104 2213.48,641.102 2215.66,944.499 2217.84,945.282 2220.01,945.454 2222.19,945.015 2224.37,943.965 2226.54,942.307 2228.72,940.046 2230.9,937.187 2233.08,933.738 2235.25,929.706 2237.43,925.103 2239.61,919.94 2241.78,914.23 2243.96,907.988 2246.14,901.229 2248.32,893.97 2250.49,886.231 2252.67,878.029 2254.85,869.387 2257.02,860.326 2259.2,850.869 2261.38,841.039 2263.56,830.863 2265.73,820.365 2267.91,809.572 2270.09,798.512 2272.27,787.212 2274.44,775.701 2276.62,764.008 2278.8,752.163 2280.97,740.196 2283.15,728.137 2285.33,716.016 2287.51,703.865 "></polyline>
<polyline clip-path="url(#clip742)" style="stroke:#e26f46; stroke-linecap:round; stroke-linejoin:round; stroke-width:4; stroke-opacity:1; fill:none" points="112.494,1023.99 114.672,747.629 116.849,743.083 119.026,738.561 121.203,734.073 123.38,729.632 125.558,725.247 127.735,720.93 129.912,716.693 132.089,712.545 134.266,708.498 136.444,704.561 138.621,700.745 140.798,697.059 142.975,693.512 145.152,690.115 147.329,686.874 149.507,683.798 151.684,680.896 153.861,678.174 156.038,675.639 158.215,673.298 160.393,671.157 162.57,669.221 164.747,667.495 166.924,665.983 169.101,664.69 171.279,663.617 173.456,662.769 175.633,662.148 177.81,661.754 179.987,661.589 182.164,661.654 184.342,661.948 186.519,1206.08 188.696,1206.83 190.873,1207.8 193.05,1209 195.228,1210.42 197.405,1212.05 199.582,1213.89 201.759,1215.95 203.936,1218.2 206.114,1220.65 208.291,1223.29 210.468,1226.12 212.645,1229.12 214.822,1232.29 216.999,1235.62 219.177,1239.1 221.354,1242.72 223.531,1246.49 225.708,1250.37 227.885,1254.37 230.063,1258.48 232.24,1262.67 234.417,1266.96 236.594,1271.31 238.771,1275.73 240.949,1280.2 243.126,1284.71 245.303,1289.25 247.48,1293.8 249.657,1298.36 251.834,1302.91 254.012,1307.44 256.189,1311.95 258.366,772.802 260.543,777.213 262.72,781.561 264.898,785.834 267.075,790.023 269.252,794.115 271.429,798.102 273.606,801.972 275.784,805.716 277.961,809.324 280.138,812.788 282.315,816.099 284.492,819.248 286.669,822.227 288.847,825.029 291.024,827.646 293.201,830.073 295.378,832.302 297.555,834.328 299.733,836.147 301.91,837.753 304.087,839.142 306.264,840.312 308.441,841.258 310.619,841.979 312.796,842.472 314.973,842.737 317.15,842.773 319.327,842.58 321.505,842.158 323.682,841.508 325.859,840.632 328.036,839.532 330.213,1381.82 332.39,1380.28 334.568,1378.53 336.745,1376.57 338.922,1374.4 341.099,1372.03 343.276,1369.48 345.454,1366.73 347.631,1363.81 349.808,1360.71 351.985,1357.45 354.162,1354.03 356.34,1350.47 358.517,1346.76 360.694,1342.93 362.871,1338.98 365.048,1334.92 367.225,1330.76 369.403,1326.51 371.58,1322.19 373.757,1317.8 375.934,1313.35 378.111,1308.85 380.289,1304.33 382.466,1299.78 384.643,1295.22 386.82,1290.67 388.997,1286.13 391.175,1281.61 393.352,1277.12 395.529,1272.69 397.706,1268.31 399.883,1264 402.06,1259.78 404.238,712.034 406.415,707.999 408.592,704.077 410.769,700.277 412.946,696.608 415.124,693.079 417.301,689.701 419.478,686.48 421.655,683.426 423.832,680.546 426.01,677.847 428.187,675.336 430.364,673.02 432.541,670.904 434.718,668.994 436.895,667.294 439.073,665.809 441.25,664.543 443.427,663.499 445.604,662.679 447.781,662.086 449.959,661.721 452.136,661.585 454.313,661.678 456.49,662 458.667,662.551 460.845,663.328 463.022,664.331 465.199,665.555 467.376,666.999 469.553,668.659 471.731,670.53 473.908,672.607 476.085,1218.5 478.262,1220.97 480.439,1223.63 482.616,1226.48 484.794,1229.5 486.971,1232.69 489.148,1236.04 491.325,1239.54 493.502,1243.19 495.68,1246.96 497.857,1250.86 500.034,1254.88 502.211,1259 504.388,1263.21 506.566,1267.5 508.743,1271.86 510.92,1276.29 513.097,1280.76 515.274,1285.28 517.451,1289.82 519.629,1294.37 521.806,1298.93 523.983,1303.48 526.16,1308.01 528.337,1312.51 530.515,1316.97 532.692,1321.37 534.869,1325.71 537.046,1329.97 539.223,1334.15 541.401,1338.23 543.578,1342.2 545.755,1346.06 547.932,806.174 550.109,809.766 552.286,813.211 554.464,816.502 556.641,819.63 558.818,822.587 560.995,825.366 563.172,827.96 565.35,830.362 567.527,832.566 569.704,834.567 571.881,836.359 574.058,837.938 576.236,839.301 578.413,840.442 580.59,841.36 582.767,842.053 584.944,842.518 587.121,842.754 589.299,842.762 591.476,842.54 593.653,842.089 595.83,841.41 598.007,840.506 600.185,839.378 602.362,838.03 604.539,836.464 606.716,834.685 608.893,832.697 611.071,830.506 613.248,828.116 615.425,825.534 617.602,822.766 619.779,819.82 621.956,1360.31 624.134,1357.03 626.311,1353.59 628.488,1350.01 630.665,1346.29 632.842,1342.45 635.02,1338.48 637.197,1334.41 639.374,1330.24 641.551,1325.98 643.728,1321.64 645.906,1317.24 648.083,1312.79 650.26,1308.29 652.437,1303.76 654.614,1299.21 656.792,1294.65 658.969,1290.1 661.146,1285.56 663.323,1281.04 665.5,1276.57 667.677,1272.14 669.855,1267.77 672.032,1263.47 674.209,1259.26 676.386,1255.13 678.563,1251.11 680.741,1247.2 682.918,1243.42 685.095,1239.77 687.272,1236.26 689.449,1232.9 691.627,1229.7 693.804,683.056 695.981,680.198 698.158,677.522 700.335,675.036 702.512,672.744 704.69,670.654 706.867,668.77 709.044,667.097 711.221,665.639 713.398,664.401 715.576,663.384 717.753,662.593 719.93,662.028 722.107,661.691 724.284,661.584 726.462,661.706 728.639,662.057 730.816,662.636 732.993,663.441 735.17,664.472 737.347,665.724 739.525,667.195 741.702,668.881 743.879,670.778 746.056,672.881 748.233,675.185 750.411,677.684 752.588,680.371 754.765,683.241 756.942,686.284 759.119,689.495 761.297,692.864 763.474,696.383 765.651,1243.65 767.828,1247.45 770.005,1251.36 772.182,1255.39 774.36,1259.52 776.537,1263.74 778.714,1268.04 780.891,1272.41 783.068,1276.85 785.246,1281.33 787.423,1285.84 789.6,1290.38 791.777,1294.94 793.954,1299.5 796.132,1304.05 798.309,1308.57 800.486,1313.07 802.663,1317.52 804.84,1321.92 807.018,1326.25 809.195,1330.5 811.372,1334.66 813.549,1338.73 815.726,1342.69 817.903,1346.53 820.081,1350.24 822.258,1353.81 824.435,1357.24 826.612,1360.51 828.789,1363.62 830.967,1366.55 833.144,1369.31 835.321,1371.88 837.498,1374.26 839.675,832.828 841.853,834.803 844.03,836.568 846.207,838.121 848.384,839.455 850.561,840.569 852.738,841.459 854.916,842.124 857.093,842.56 859.27,842.768 861.447,842.746 863.624,842.496 865.802,842.016 867.979,841.31 870.156,840.377 872.333,839.222 874.51,837.846 876.688,836.253 878.865,834.448 881.042,832.434 883.219,830.218 885.396,827.803 887.573,825.198 889.751,822.407 891.928,819.439 894.105,816.301 896.282,813 898.459,809.545 900.637,805.945 902.814,802.209 904.991,798.347 907.168,794.368 909.345,790.281 911.523,1329.71 913.7,1325.44 915.877,1321.1 918.054,1316.69 920.231,1312.23 922.408,1307.73 924.586,1303.19 926.763,1298.64 928.94,1294.08 931.117,1289.53 933.294,1284.99 935.472,1280.48 937.649,1276.01 939.826,1271.59 942.003,1267.23 944.18,1262.94 946.358,1258.74 948.535,1254.62 950.712,1250.62 952.889,1246.72 955.066,1242.96 957.244,1239.32 959.421,1235.83 961.598,1232.49 963.775,1229.31 965.952,1226.3 968.129,1223.46 970.307,1220.81 972.484,1218.35 974.661,1216.08 976.838,1214.02 979.015,1212.16 981.193,1210.51 983.37,665.472 985.547,664.261 987.724,663.273 989.901,662.51 992.079,661.973 994.256,661.666 996.433,661.587 998.61,661.737 1000.79,662.117 1002.96,662.724 1005.14,663.558 1007.32,664.616 1009.5,665.896 1011.67,667.394 1013.85,669.107 1016.03,671.03 1018.2,673.159 1020.38,675.487 1022.56,678.01 1024.74,680.72 1026.91,683.612 1029.09,686.677 1031.27,689.907 1033.45,693.296 1035.62,696.833 1037.8,700.511 1039.98,704.319 1042.15,708.248 1044.33,712.289 1046.51,716.431 1048.69,720.663 1050.86,724.975 1053.04,729.356 1055.22,1277.4 1057.39,1281.89 1059.57,1286.41 1061.75,1290.95 1063.93,1295.51 1066.1,1300.07 1068.28,1304.61 1070.46,1309.14 1072.63,1313.63 1074.81,1318.07 1076.99,1322.46 1079.17,1326.78 1081.34,1331.02 1083.52,1335.18 1085.7,1339.23 1087.87,1343.18 1090.05,1347 1092.23,1350.69 1094.41,1354.25 1096.58,1357.66 1098.76,1360.91 1100.94,1363.99 1103.12,1366.91 1105.29,1369.64 1107.47,1372.19 1109.65,1374.54 1111.82,1376.69 1114,1378.64 1116.18,1380.38 1118.36,1381.91 1120.53,1383.22 1122.71,1384.3 1124.89,1385.16 1127.06,1385.8 1129.24,842.599 1131.42,842.778 1133.6,842.728 1135.77,842.448 1137.95,841.94 1140.13,841.205 1142.3,840.245 1144.48,839.062 1146.66,837.659 1148.84,836.039 1151.01,834.208 1153.19,832.168 1155.37,829.927 1157.54,827.488 1159.72,824.859 1161.9,822.046 1164.08,819.056 1166.25,815.897 1168.43,812.576 1170.61,809.103 1172.79,805.486 1174.96,801.733 1177.14,797.856 1179.32,793.862 1181.49,789.764 1183.67,785.57 1185.85,781.291 1188.03,776.939 1190.2,772.525 1192.38,768.058 1194.56,763.552 1196.73,759.017 1198.91,754.464 1201.09,1293.52 1203.27,1288.96 1205.44,1284.43 1207.62,1279.92 1209.8,1275.46 1211.97,1271.04 1214.15,1266.69 1216.33,1262.41 1218.51,1258.22 1220.68,1254.12 1222.86,1250.12 1225.04,1246.25 1227.21,1242.49 1229.39,1238.88 1231.57,1235.4 1233.75,1232.08 1235.92,1228.92 1238.1,1225.93 1240.28,1223.12 1242.46,1220.49 1244.63,1218.05 1246.81,1215.81 1248.99,1213.77 1251.16,1211.94 1253.34,1210.32 1255.52,1208.92 1257.7,1207.73 1259.87,1206.77 1262.05,1206.04 1264.23,1205.53 1266.4,1205.25 1268.58,1205.2 1270.76,1205.38 1272.94,662.18 1275.11,662.816 1277.29,663.678 1279.47,664.764 1281.64,666.071 1283.82,667.596 1286,669.336 1288.18,671.285 1290.35,673.439 1292.53,675.792 1294.71,678.339 1296.88,681.072 1299.06,683.985 1301.24,687.072 1303.42,690.322 1305.59,693.73 1307.77,697.285 1309.95,700.98 1312.13,704.804 1314.3,708.748 1316.48,712.802 1318.66,716.955 1320.83,721.198 1323.01,725.519 1325.19,729.908 1327.37,734.353 1329.54,738.843 1331.72,743.367 1333.9,747.913 1336.07,752.47 1338.25,757.027 1340.43,761.571 1342.61,766.091 1344.78,770.576 1346.96,1318.62 1349.14,1323 1351.31,1327.32 1353.49,1331.55 1355.67,1335.69 1357.85,1339.73 1360.02,1343.66 1362.2,1347.47 1364.38,1351.15 1366.55,1354.68 1368.73,1358.07 1370.91,1361.3 1373.09,1364.37 1375.26,1367.26 1377.44,1369.97 1379.62,1372.49 1381.8,1374.82 1383.97,1376.95 1386.15,1378.87 1388.33,1380.59 1390.5,1382.08 1392.68,1383.36 1394.86,1384.42 1397.04,1385.26 1399.21,1385.86 1401.39,1386.24 1403.57,1386.39 1405.74,1386.31 1407.92,1386.01 1410.1,1385.47 1412.28,1384.71 1414.45,1383.72 1416.63,1382.51 1418.81,837.468 1420.98,835.822 1423.16,833.964 1425.34,831.899 1427.52,829.632 1429.69,827.17 1431.87,824.517 1434.05,821.682 1436.22,818.67 1438.4,815.49 1440.58,812.15 1442.76,808.659 1444.93,805.024 1447.11,801.255 1449.29,797.363 1451.47,793.356 1453.64,789.244 1455.82,785.039 1458,780.751 1460.17,776.391 1462.35,771.969 1464.53,767.497 1466.71,762.986 1468.88,758.449 1471.06,753.895 1473.24,749.337 1475.41,744.786 1477.59,740.254 1479.77,735.752 1481.95,731.291 1484.12,726.884 1486.3,722.54 1488.48,718.272 1490.65,1257.7 1492.83,1253.61 1495.01,1249.63 1497.19,1245.77 1499.36,1242.03 1501.54,1238.43 1503.72,1234.98 1505.89,1231.68 1508.07,1228.54 1510.25,1225.57 1512.43,1222.78 1514.6,1220.18 1516.78,1217.76 1518.96,1215.55 1521.14,1213.53 1523.31,1211.73 1525.49,1210.13 1527.67,1208.76 1529.84,1207.6 1532.02,1206.67 1534.2,1205.96 1536.38,1205.48 1538.55,1205.23 1540.73,1205.21 1542.91,1205.42 1545.08,1205.86 1547.26,1206.52 1549.44,1207.41 1551.62,1208.52 1553.79,1209.86 1555.97,1211.41 1558.15,1213.18 1560.32,1215.15 1562.5,1217.33 1564.68,676.1 1566.86,678.67 1569.03,681.426 1571.21,684.362 1573.39,687.469 1575.56,690.74 1577.74,694.166 1579.92,697.74 1582.1,701.451 1584.27,705.29 1586.45,709.249 1588.63,713.315 1590.81,717.481 1592.98,721.734 1595.16,726.064 1597.34,730.46 1599.51,734.912 1601.69,739.407 1603.87,743.934 1606.05,748.482 1608.22,753.04 1610.4,757.596 1612.58,762.137 1614.75,766.654 1616.93,771.134 1619.11,775.566 1621.29,779.939 1623.46,784.241 1625.64,788.463 1627.82,792.592 1629.99,796.62 1632.17,800.535 1634.35,804.327 1636.53,1351.6 1638.7,1355.12 1640.88,1358.48 1643.06,1361.7 1645.24,1364.74 1647.41,1367.61 1649.59,1370.3 1651.77,1372.79 1653.94,1375.1 1656.12,1377.2 1658.3,1379.1 1660.48,1380.78 1662.65,1382.26 1664.83,1383.51 1667.01,1384.54 1669.18,1385.34 1671.36,1385.92 1673.54,1386.27 1675.72,1386.4 1677.89,1386.29 1680.07,1385.95 1682.25,1385.39 1684.42,1384.6 1686.6,1383.58 1688.78,1382.34 1690.96,1380.88 1693.13,1379.21 1695.31,1377.33 1697.49,1375.24 1699.66,1372.94 1701.84,1370.46 1704.02,1367.78 1706.2,1364.92 1708.37,818.282 1710.55,815.081 1712.73,811.722 1714.91,808.212 1717.08,804.56 1719.26,800.775 1721.44,796.868 1723.61,792.847 1725.79,788.724 1727.97,784.508 1730.15,780.21 1732.32,775.841 1734.5,771.412 1736.68,766.935 1738.85,762.421 1741.03,757.88 1743.21,753.325 1745.39,748.767 1747.56,744.218 1749.74,739.689 1751.92,735.192 1754.09,730.737 1756.27,726.337 1758.45,722.002 1760.63,717.744 1762.8,713.573 1764.98,709.5 1767.16,705.534 1769.33,701.687 1771.51,697.968 1773.69,694.386 1775.87,690.95 1778.04,687.669 1780.22,1228.16 1782.4,1225.21 1784.58,1222.45 1786.75,1219.86 1788.93,1217.47 1791.11,1215.28 1793.28,1213.29 1795.46,1211.52 1797.64,1209.95 1799.82,1208.6 1801.99,1207.47 1804.17,1206.57 1806.35,1205.89 1808.52,1205.44 1810.7,1205.22 1812.88,1205.23 1815.06,1205.46 1817.23,1205.93 1819.41,1206.62 1821.59,1207.54 1823.76,1208.68 1825.94,1210.04 1828.12,1211.62 1830.3,1213.41 1832.47,1215.41 1834.65,1217.62 1836.83,1220.02 1839,1222.61 1841.18,1225.39 1843.36,1228.35 1845.54,1231.48 1847.71,1234.77 1849.89,1238.21 1852.07,1241.81 1854.25,701.924 1856.42,705.779 1858.6,709.751 1860.78,713.831 1862.95,718.008 1865.13,722.271 1867.31,726.61 1869.49,731.014 1871.66,735.471 1873.84,739.971 1876.02,744.502 1878.19,749.052 1880.37,753.61 1882.55,758.164 1884.73,762.704 1886.9,767.216 1889.08,771.691 1891.26,776.116 1893.43,780.481 1895.61,784.774 1897.79,788.984 1899.97,793.102 1902.14,797.115 1904.32,801.016 1906.5,804.792 1908.67,808.435 1910.85,811.936 1913.03,815.286 1915.21,818.476 1917.38,821.498 1919.56,824.345 1921.74,827.009 1923.92,829.484 1926.09,1375.37 1928.27,1377.45 1930.45,1379.32 1932.62,1380.98 1934.8,1382.42 1936.98,1383.65 1939.16,1384.65 1941.33,1385.43 1943.51,1385.98 1945.69,1386.3 1947.86,1386.39 1950.04,1386.26 1952.22,1385.89 1954.4,1385.3 1956.57,1384.48 1958.75,1383.44 1960.93,1382.17 1963.1,1380.69 1965.28,1378.99 1967.46,1377.08 1969.64,1374.96 1971.81,1372.64 1973.99,1370.13 1976.17,1367.43 1978.34,1364.55 1980.52,1361.5 1982.7,1358.28 1984.88,1354.9 1987.05,1351.37 1989.23,1347.7 1991.41,1343.9 1993.59,1339.98 1995.76,1335.95 1997.94,788.202 2000.12,783.975 2002.29,779.667 2004.47,775.291 2006.65,770.855 2008.83,766.373 2011,761.854 2013.18,757.311 2015.36,752.755 2017.53,748.198 2019.71,743.651 2021.89,739.125 2024.07,734.632 2026.24,730.184 2028.42,725.791 2030.6,721.466 2032.77,717.218 2034.95,713.058 2037.13,708.998 2039.31,705.047 2041.48,701.215 2043.66,697.512 2045.84,693.948 2048.01,690.531 2050.19,687.27 2052.37,684.173 2054.55,681.249 2056.72,678.504 2058.9,675.946 2061.08,673.58 2063.26,671.414 2065.43,669.452 2067.61,667.699 2069.79,666.16 2071.96,1208.45 2074.14,1207.35 2076.32,1206.47 2078.5,1205.82 2080.67,1205.4 2082.85,1205.21 2085.03,1205.24 2087.2,1205.51 2089.38,1206 2091.56,1206.72 2093.74,1207.67 2095.91,1208.84 2098.09,1210.23 2100.27,1211.83 2102.44,1213.65 2104.62,1215.68 2106.8,1217.91 2108.98,1220.33 2111.15,1222.95 2113.33,1225.75 2115.51,1228.73 2117.68,1231.88 2119.86,1235.19 2122.04,1238.66 2124.22,1242.26 2126.39,1246.01 2128.57,1249.88 2130.75,1253.86 2132.93,1257.96 2135.1,1262.15 2137.28,1266.42 2139.46,1270.77 2141.63,1275.18 2143.81,736.032 2145.99,740.536 2148.17,745.07 2150.34,749.621 2152.52,754.18 2154.7,758.733 2156.87,763.269 2159.05,767.778 2161.23,772.247 2163.41,776.665 2165.58,781.021 2167.76,785.305 2169.94,789.504 2172.11,793.609 2174.29,797.609 2176.47,801.495 2178.65,805.255 2180.82,808.881 2183,812.364 2185.18,815.694 2187.35,818.863 2189.53,821.864 2191.71,824.688 2193.89,827.329 2196.06,829.78 2198.24,832.034 2200.42,834.086 2202.6,835.931 2204.77,837.564 2206.95,838.981 2209.13,840.178 2211.3,841.152 2213.48,841.901 2215.66,1386.03 2217.84,1386.33 2220.01,1386.39 2222.19,1386.23 2224.37,1385.83 2226.54,1385.21 2228.72,1384.36 2230.9,1383.29 2233.08,1382 2235.25,1380.48 2237.43,1378.76 2239.61,1376.82 2241.78,1374.68 2243.96,1372.34 2246.14,1369.81 2248.32,1367.08 2250.49,1364.18 2252.67,1361.11 2254.85,1357.87 2257.02,1354.47 2259.2,1350.92 2261.38,1347.23 2263.56,1343.42 2265.73,1339.48 2267.91,1335.43 2270.09,1331.29 2272.27,1327.05 2274.44,1322.73 2276.62,1318.35 2278.8,1313.91 2280.97,1309.42 2283.15,1304.9 2285.33,1300.35 2287.51,1295.79 "></polyline>
</svg>