<svg xmlns="http://www.w3.org/2000/svg" xmlns:xlink="http://www.w3.org/1999/xlink" width="600" height="400" viewBox="0 0 2400 1600">
<defs>
  <clipPath id="clip700">
    <rect x="0" y="0" width="2400" height="1600"></rect>
  </clipPath>
</defs>
<path clip-path="url(#clip700)" d="M0 1600 L2400 1600 L2400 0 L0 0  Z" fill="#ffffff" fill-rule="evenodd" fill-opacity="1"></path>
<defs>
  <clipPath id="clip701">
    <rect x="480" y="0" width="1681" height="1600"></rect>
  </clipPath>
</defs>
<path clip-path="url(#clip700)" d="M47.2441 1423.18 L2352.76 1423.18 L2352.76 123.472 L47.2441 123.472  Z" fill="#ffffff" fill-rule="evenodd" fill-opacity="1"></path>
<defs>
  <clipPath id="clip702">
    <rect x="47" y="123" width="2307" height="1301"></rect>
  </clipPath>
</defs>
<polyline clip-path="url(#clip702)" style="stroke:#000000; stroke-linecap:round; stroke-linejoin:round; stroke-width:2; stroke-opacity:0.1; fill:none" points="112.494,1423.18 112.494,123.472 "></polyline>
<polyline clip-path="url(#clip702)" style="stroke:#000000; stroke-linecap:round; stroke-linejoin:round; stroke-width:2; stroke-opacity:0.1; fill:none" points="656.247,1423.18 656.247,123.472 "></polyline>
<polyline clip-path="url(#clip702)" style="stroke:#000000; stroke-linecap:round; stroke-linejoin:round; stroke-width:2; stroke-opacity:0.1; fill:none" points="1200,1423.18 1200,123.472 "></polyline>
<polyline clip-path="url(#clip702)" style="stroke:#000000; stroke-linecap:round; stroke-linejoin:round; stroke-width:2; stroke-opacity:0.1; fill:none" points="1743.75,1423.18 1743.75,123.472 "></polyline>
<polyline clip-path="url(#clip702)" style="stroke:#000000; stroke-linecap:round; stroke-linejoin:round; stroke-width:2; stroke-opacity:0.1; fill:none" points="2287.51,1423.18 2287.51,123.472 "></polyline>
<polyline clip-path="url(#clip700)" style="stroke:#000000; stroke-linecap:round; stroke-linejoin:round; stroke-width:4; stroke-opacity:1; fill:none" points="47.2441,1423.18 2352.76,1423.18 "></polyline>
<polyline clip-path="url(#clip700)" style="stroke:#000000; stroke-linecap:round; stroke-linejoin:round; stroke-width:4; stroke-opacity:1; fill:none" points="112.494,1423.18 112.494,1404.28 "></polyline>
<polyline clip-path="url(#clip700)" style="stroke:#000000; stroke-linecap:round; stroke-linejoin:round; stroke-width:4; stroke-opacity:1; fill:none" points="656.247,1423.18 656.247,1404.28 "></polyline>
<polyline clip-path="url(#clip700)" style="stroke:#000000; stroke-linecap:round; stroke-linejoin:round; stroke-width:4; stroke-opacity:1; fill:none" points="1200,1423.18 1200,1404.28 "></polyline>
<polyline clip-path="url(#clip700)" style="stroke:#000000; stroke-linecap:round; stroke-linejoin:round; stroke-width:4; stroke-opacity:1; fill:none" points="1743.75,1423.18 1743.75,1404.28 "></polyline>
<polyline clip-path="url(#clip700)" style="stroke:#000000; stroke-linecap:round; stroke-linejoin:round; stroke-width:4; stroke-opacity:1; fill:none" points="2287.51,1423.18 2287.51,1404.28 "></polyline>
<path clip-path="url(#clip700)" d="M89.8788 1454.1 Q86.2677 1454.1 84.439 1457.66 Q82.6335 1461.2 82.6335 1468.33 Q82.6335 1475.44 84.439 1479.01 Q86.2677 1482.55 89.8788 1482.55 Q93.513 1482.55 95.3186 1479.01 Q97.1473 1475.44 97.1473 1468.33 Q97.1473 1461.2 95.3186 1457.66 Q93.513 1454.1 89.8788 1454.1 M89.8788 1450.39 Q95.689 1450.39 98.7445 1455 Q101.823 1459.58 101.823 1468.33 Q101.823 1477.06 98.7445 1481.67 Q95.689 1486.25 89.8788 1486.25 Q84.0687 1486.25 80.99 1481.67 Q77.9344 1477.06 77.9344 1468.33 Q77.9344 1459.58 80.99 1455 Q84.0687 1450.39 89.8788 1450.39 Z" fill="#000000" fill-rule="nonzero" fill-opacity="1"></path><path clip-path="url(#clip700)" d="M110.041 1479.7 L114.925 1479.7 L114.925 1485.58 L110.041 1485.58 L110.041 1479.7 Z" fill="#000000" fill-rule="nonzero" fill-opacity="1"></path><path clip-path="url(#clip700)" d="M135.11 1454.1 Q131.499 1454.1 129.67 1457.66 Q127.865 1461.2 127.865 1468.33 Q127.865 1475.44 129.67 1479.01 Q131.499 1482.55 135.11 1482.55 Q138.744 1482.55 140.55 1479.01 Q142.379 1475.44 142.379 1468.33 Q142.379 1461.2 140.55 1457.66 Q138.744 1454.1 135.11 1454.1 M135.11 1450.39 Q140.92 1450.39 143.976 1455 Q147.054 1459.58 147.054 1468.33 Q147.054 1477.06 143.976 1481.67 Q140.92 1486.25 135.11 1486.25 Q129.3 1486.25 126.221 1481.67 Q123.166 1477.06 123.166 1468.33 Q123.166 1459.58 126.221 1455 Q129.3 1450.39 135.11 1450.39 Z" fill="#000000" fill-rule="nonzero" fill-opacity="1"></path><path clip-path="url(#clip700)" d="M627.983 1481.64 L644.303 1481.64 L644.303 1485.58 L622.359 1485.58 L622.359 1481.64 Q625.021 1478.89 629.604 1474.26 Q634.21 1469.61 635.391 1468.27 Q637.636 1465.74 638.516 1464.01 Q639.419 1462.25 639.419 1460.56 Q639.419 1457.8 637.474 1456.07 Q635.553 1454.33 632.451 1454.33 Q630.252 1454.33 627.798 1455.09 Q625.368 1455.86 622.59 1457.41 L622.59 1452.69 Q625.414 1451.55 627.868 1450.97 Q630.321 1450.39 632.358 1450.39 Q637.729 1450.39 640.923 1453.08 Q644.118 1455.77 644.118 1460.26 Q644.118 1462.39 643.307 1464.31 Q642.52 1466.2 640.414 1468.8 Q639.835 1469.47 636.733 1472.69 Q633.632 1475.88 627.983 1481.64 Z" fill="#000000" fill-rule="nonzero" fill-opacity="1"></path><path clip-path="url(#clip700)" d="M654.118 1479.7 L659.002 1479.7 L659.002 1485.58 L654.118 1485.58 L654.118 1479.7 Z" fill="#000000" fill-rule="nonzero" fill-opacity="1"></path><path clip-path="url(#clip700)" d="M669.233 1451.02 L687.59 1451.02 L687.59 1454.96 L673.516 1454.96 L673.516 1463.43 Q674.534 1463.08 675.553 1462.92 Q676.571 1462.73 677.59 1462.73 Q683.377 1462.73 686.756 1465.9 Q690.136 1469.08 690.136 1474.49 Q690.136 1480.07 686.664 1483.17 Q683.192 1486.25 676.872 1486.25 Q674.696 1486.25 672.428 1485.88 Q670.182 1485.51 667.775 1484.77 L667.775 1480.07 Q669.858 1481.2 672.08 1481.76 Q674.303 1482.32 676.78 1482.32 Q680.784 1482.32 683.122 1480.21 Q685.46 1478.1 685.46 1474.49 Q685.46 1470.88 683.122 1468.77 Q680.784 1466.67 676.78 1466.67 Q674.905 1466.67 673.03 1467.08 Q671.178 1467.5 669.233 1468.38 L669.233 1451.02 Z" fill="#000000" fill-rule="nonzero" fill-opacity="1"></path><path clip-path="url(#clip700)" d="M1167.16 1451.02 L1185.52 1451.02 L1185.52 1454.96 L1171.45 1454.96 L1171.45 1463.43 Q1172.47 1463.08 1173.48 1462.92 Q1174.5 1462.73 1175.52 1462.73 Q1181.31 1462.73 1184.69 1465.9 Q1188.07 1469.08 1188.07 1474.49 Q1188.07 1480.07 1184.59 1483.17 Q1181.12 1486.25 1174.8 1486.25 Q1172.63 1486.25 1170.36 1485.88 Q1168.11 1485.51 1165.71 1484.77 L1165.71 1480.07 Q1167.79 1481.2 1170.01 1481.76 Q1172.23 1482.32 1174.71 1482.32 Q1178.72 1482.32 1181.05 1480.21 Q1183.39 1478.1 1183.39 1474.49 Q1183.39 1470.88 1181.05 1468.77 Q1178.72 1466.67 1174.71 1466.67 Q1172.84 1466.67 1170.96 1467.08 Q1169.11 1467.5 1167.16 1468.38 L1167.16 1451.02 Z" fill="#000000" fill-rule="nonzero" fill-opacity="1"></path><path clip-path="url(#clip700)" d="M1197.28 1479.7 L1202.16 1479.7 L1202.16 1485.58 L1197.28 1485.58 L1197.28 1479.7 Z" fill="#000000" fill-rule="nonzero" fill-opacity="1"></path><path clip-path="url(#clip700)" d="M1222.35 1454.1 Q1218.74 1454.1 1216.91 1457.66 Q1215.1 1461.2 1215.1 1468.33 Q1215.1 1475.44 1216.91 1479.01 Q1218.74 1482.55 1222.35 1482.55 Q1225.98 1482.55 1227.79 1479.01 Q1229.62 1475.44 1229.62 1468.33 Q1229.62 1461.2 1227.79 1457.66 Q1225.98 1454.1 1222.35 1454.1 M1222.35 1450.39 Q1228.16 1450.39 1231.22 1455 Q1234.29 1459.58 1234.29 1468.33 Q1234.29 1477.06 1231.22 1481.67 Q1228.16 1486.25 1222.35 1486.25 Q1216.54 1486.25 1213.46 1481.67 Q1210.41 1477.06 1210.41 1468.33 Q1210.41 1459.58 1213.46 1455 Q1216.54 1450.39 1222.35 1450.39 Z" fill="#000000" fill-rule="nonzero" fill-opacity="1"></path><path clip-path="url(#clip700)" d="M1710.07 1451.02 L1732.29 1451.02 L1732.29 1453.01 L1719.75 1485.58 L1714.86 1485.58 L1726.67 1454.96 L1710.07 1454.96 L1710.07 1451.02 Z" fill="#000000" fill-rule="nonzero" fill-opacity="1"></path><path clip-path="url(#clip700)" d="M1741.41 1479.7 L1746.3 1479.7 L1746.3 1485.58 L1741.41 1485.58 L1741.41 1479.7 Z" fill="#000000" fill-rule="nonzero" fill-opacity="1"></path><path clip-path="url(#clip700)" d="M1756.53 1451.02 L1774.89 1451.02 L1774.89 1454.96 L1760.81 1454.96 L1760.81 1463.43 Q1761.83 1463.08 1762.85 1462.92 Q1763.87 1462.73 1764.89 1462.73 Q1770.67 1462.73 1774.05 1465.9 Q1777.43 1469.08 1777.43 1474.49 Q1777.43 1480.07 1773.96 1483.17 Q1770.49 1486.25 1764.17 1486.25 Q1761.99 1486.25 1759.72 1485.88 Q1757.48 1485.51 1755.07 1484.77 L1755.07 1480.07 Q1757.16 1481.2 1759.38 1481.76 Q1761.6 1482.32 1764.08 1482.32 Q1768.08 1482.32 1770.42 1480.21 Q1772.76 1478.1 1772.76 1474.49 Q1772.76 1470.88 1770.42 1468.77 Q1768.08 1466.67 1764.08 1466.67 Q1762.2 1466.67 1760.33 1467.08 Q1758.47 1467.5 1756.53 1468.38 L1756.53 1451.02 Z" fill="#000000" fill-rule="nonzero" fill-opacity="1"></path><path clip-path="url(#clip700)" d="M2239.58 1481.64 L2247.22 1481.64 L2247.22 1455.28 L2238.91 1456.95 L2238.91 1452.69 L2247.17 1451.02 L2251.85 1451.02 L2251.85 1481.64 L2259.48 1481.64 L2259.48 1485.58 L2239.58 1485.58 L2239.58 1481.64 Z" fill="#000000" fill-rule="nonzero" fill-opacity="1"></path><path clip-path="url(#clip700)" d="M2278.93 1454.1 Q2275.32 1454.1 2273.49 1457.66 Q2271.68 1461.2 2271.68 1468.33 Q2271.68 1475.44 2273.49 1479.01 Q2275.32 1482.55 2278.93 1482.55 Q2282.56 1482.55 2284.37 1479.01 Q2286.2 1475.44 2286.2 1468.33 Q2286.2 1461.2 2284.37 1457.66 Q2282.56 1454.1 2278.93 1454.1 M2278.93 1450.39 Q2284.74 1450.39 2287.79 1455 Q2290.87 1459.58 2290.87 1468.33 Q2290.87 1477.06 2287.79 1481.67 Q2284.74 1486.25 2278.93 1486.25 Q2273.12 1486.25 2270.04 1481.67 Q2266.98 1477.06 2266.98 1468.33 Q2266.98 1459.58 2270.04 1455 Q2273.12 1450.39 2278.93 1450.39 Z" fill="#000000" fill-rule="nonzero" fill-opacity="1"></path><path clip-path="url(#clip700)" d="M2299.09 1479.7 L2303.98 1479.7 L2303.98 1485.58 L2299.09 1485.58 L2299.09 1479.7 Z" fill="#000000" fill-rule="nonzero" fill-opacity="1"></path><path clip-path="url(#clip700)" d="M2324.16 1454.1 Q2320.55 1454.1 2318.72 1457.66 Q2316.92 1461.2 2316.92 1468.33 Q2316.92 1475.44 2318.72 1479.01 Q2320.55 1482.55 2324.16 1482.55 Q2327.79 1482.55 2329.6 1479.01 Q2331.43 1475.44 2331.43 1468.33 Q2331.43 1461.2 2329.6 1457.66 Q2327.79 1454.1 2324.16 1454.1 M2324.16 1450.39 Q2329.97 1450.39 2333.03 1455 Q2336.1 1459.58 2336.1 1468.33 Q2336.1 1477.06 2333.03 1481.67 Q2329.97 1486.25 2324.16 1486.25 Q2318.35 1486.25 2315.27 1481.67 Q2312.22 1477.06 2312.22 1468.33 Q2312.22 1459.58 2315.27 1455 Q2318.35 1450.39 2324.16 1450.39 Z" fill="#000000" fill-rule="nonzero" fill-opacity="1"></path><path clip-path="url(#clip700)" d="M1070.17 1520.52 L1110.37 1520.52 L1110.37 1525.93 L1093.5 1525.93 L1093.5 1568.04 L1087.04 1568.04 L1087.04 1525.93 L1070.17 1525.93 L1070.17 1520.52 Z" fill="#000000" fill-rule="nonzero" fill-opacity="1"></path><path clip-path="url(#clip700)" d="M1114.32 1532.4 L1120.17 1532.4 L1120.17 1568.04 L1114.32 1568.04 L1114.32 1532.4 M1114.32 1518.52 L1120.17 1518.52 L1120.17 1525.93 L1114.32 1525.93 L1114.32 1518.52 Z" fill="#000000" fill-rule="nonzero" fill-opacity="1"></path><path clip-path="url(#clip700)" d="M1160.18 1539.24 Q1162.38 1535.29 1165.43 1533.41 Q1168.49 1531.54 1172.63 1531.54 Q1178.2 1531.54 1181.22 1535.45 Q1184.24 1539.33 1184.24 1546.53 L1184.24 1568.04 L1178.36 1568.04 L1178.36 1546.72 Q1178.36 1541.59 1176.54 1539.11 Q1174.73 1536.63 1171 1536.63 Q1166.45 1536.63 1163.81 1539.65 Q1161.17 1542.68 1161.17 1547.9 L1161.17 1568.04 L1155.28 1568.04 L1155.28 1546.72 Q1155.28 1541.56 1153.47 1539.11 Q1151.65 1536.63 1147.86 1536.63 Q1143.38 1536.63 1140.74 1539.68 Q1138.09 1542.71 1138.09 1547.9 L1138.09 1568.04 L1132.21 1568.04 L1132.21 1532.4 L1138.09 1532.4 L1138.09 1537.93 Q1140.1 1534.66 1142.9 1533.1 Q1145.7 1531.54 1149.55 1531.54 Q1153.43 1531.54 1156.14 1533.51 Q1158.88 1535.48 1160.18 1539.24 Z" fill="#000000" fill-rule="nonzero" fill-opacity="1"></path><path clip-path="url(#clip700)" d="M1226.42 1548.76 L1226.42 1551.62 L1199.49 1551.62 Q1199.87 1557.67 1203.12 1560.85 Q1206.4 1564 1212.22 1564 Q1215.6 1564 1218.75 1563.17 Q1221.93 1562.35 1225.05 1560.69 L1225.05 1566.23 Q1221.9 1567.57 1218.59 1568.27 Q1215.28 1568.97 1211.87 1568.97 Q1203.34 1568.97 1198.34 1564 Q1193.38 1559.04 1193.38 1550.57 Q1193.38 1541.82 1198.09 1536.69 Q1202.83 1531.54 1210.85 1531.54 Q1218.05 1531.54 1222.22 1536.18 Q1226.42 1540.8 1226.42 1548.76 M1220.56 1547.04 Q1220.5 1542.23 1217.86 1539.37 Q1215.25 1536.5 1210.92 1536.5 Q1206.02 1536.5 1203.06 1539.27 Q1200.13 1542.04 1199.68 1547.07 L1220.56 1547.04 Z" fill="#000000" fill-rule="nonzero" fill-opacity="1"></path><path clip-path="url(#clip700)" d="M1270.82 1518.58 Q1266.55 1525.9 1264.48 1533.06 Q1262.42 1540.23 1262.42 1547.58 Q1262.42 1554.93 1264.48 1562.16 Q1266.59 1569.35 1270.82 1576.64 L1265.73 1576.64 Q1260.95 1569.16 1258.56 1561.93 Q1256.21 1554.71 1256.21 1547.58 Q1256.21 1540.48 1258.56 1533.29 Q1260.92 1526.09 1265.73 1518.58 L1270.82 1518.58 Z" fill="#000000" fill-rule="nonzero" fill-opacity="1"></path><path clip-path="url(#clip700)" d="M1304.91 1533.45 L1304.91 1538.98 Q1302.42 1537.71 1299.75 1537.07 Q1297.08 1536.44 1294.21 1536.44 Q1289.85 1536.44 1287.66 1537.77 Q1285.49 1539.11 1285.49 1541.79 Q1285.49 1543.82 1287.05 1545 Q1288.61 1546.15 1293.32 1547.2 L1295.33 1547.64 Q1301.56 1548.98 1304.17 1551.43 Q1306.82 1553.85 1306.82 1558.21 Q1306.82 1563.17 1302.87 1566.07 Q1298.95 1568.97 1292.08 1568.97 Q1289.22 1568.97 1286.1 1568.39 Q1283.01 1567.85 1279.57 1566.74 L1279.57 1560.69 Q1282.82 1562.38 1285.97 1563.24 Q1289.12 1564.07 1292.21 1564.07 Q1296.34 1564.07 1298.57 1562.66 Q1300.8 1561.23 1300.8 1558.65 Q1300.8 1556.27 1299.18 1554.99 Q1297.59 1553.72 1292.14 1552.54 L1290.11 1552.07 Q1284.66 1550.92 1282.24 1548.56 Q1279.83 1546.18 1279.83 1542.04 Q1279.83 1537.01 1283.39 1534.27 Q1286.96 1531.54 1293.51 1531.54 Q1296.76 1531.54 1299.62 1532.01 Q1302.49 1532.49 1304.91 1533.45 Z" fill="#000000" fill-rule="nonzero" fill-opacity="1"></path><path clip-path="url(#clip700)" d="M1315.22 1518.58 L1320.31 1518.58 Q1325.09 1526.09 1327.44 1533.29 Q1329.83 1540.48 1329.83 1547.58 Q1329.83 1554.71 1327.44 1561.93 Q1325.09 1569.16 1320.31 1576.64 L1315.22 1576.64 Q1319.45 1569.35 1321.52 1562.16 Q1323.62 1554.93 1323.62 1547.58 Q1323.62 1540.23 1321.52 1533.06 Q1319.45 1525.9 1315.22 1518.58 Z" fill="#000000" fill-rule="nonzero" fill-opacity="1"></path><polyline clip-path="url(#clip700)" style="stroke:#000000; stroke-linecap:round; stroke-linejoin:round; stroke-width:4; stroke-opacity:1; fill:none" points="47.2441,1423.18 47.2441,123.472 "></polyline>
<path clip-path="url(#clip700)" d="M678.669 12.096 L716.909 12.096 L716.909 18.9825 L686.852 18.9825 L686.852 36.8875 L715.654 36.8875 L715.654 43.7741 L686.852 43.7741 L686.852 65.6895 L717.639 65.6895 L717.639 72.576 L678.669 72.576 L678.669 12.096 Z" fill="#000000" fill-rule="nonzero" fill-opacity="1"></path><path clip-path="url(#clip700)" d="M759.687 28.5427 L759.687 35.5912 Q756.527 33.9709 753.125 33.1607 Q749.722 32.3505 746.076 32.3505 Q740.526 32.3505 737.731 34.0519 Q734.976 35.7533 734.976 39.156 Q734.976 41.7486 736.961 43.2475 Q738.946 44.7058 744.942 46.0426 L747.494 46.6097 Q755.434 48.3111 758.755 51.4303 Q762.118 54.509 762.118 60.0587 Q762.118 66.3781 757.094 70.0644 Q752.112 73.7508 743.362 73.7508 Q739.716 73.7508 735.746 73.0216 Q731.817 72.3329 727.442 70.9151 L727.442 63.2184 Q731.574 65.3654 735.584 66.4591 Q739.594 67.5124 743.524 67.5124 Q748.79 67.5124 751.626 65.73 Q754.461 63.9071 754.461 60.6258 Q754.461 57.5877 752.395 55.9673 Q750.37 54.3469 743.443 52.8481 L740.85 52.2405 Q733.923 50.7821 730.845 47.7845 Q727.766 44.7463 727.766 39.4801 Q727.766 33.0797 732.303 29.5959 Q736.84 26.1121 745.185 26.1121 Q749.317 26.1121 752.962 26.7198 Q756.608 27.3274 759.687 28.5427 Z" fill="#000000" fill-rule="nonzero" fill-opacity="1"></path><path clip-path="url(#clip700)" d="M781.359 14.324 L781.359 27.2059 L796.712 27.2059 L796.712 32.9987 L781.359 32.9987 L781.359 57.6282 Q781.359 63.1779 782.858 64.7578 Q784.397 66.3376 789.056 66.3376 L796.712 66.3376 L796.712 72.576 L789.056 72.576 Q780.428 72.576 777.146 69.3758 Q773.865 66.1351 773.865 57.6282 L773.865 32.9987 L768.396 32.9987 L768.396 27.2059 L773.865 27.2059 L773.865 14.324 L781.359 14.324 Z" fill="#000000" fill-rule="nonzero" fill-opacity="1"></path><path clip-path="url(#clip700)" d="M806.515 27.2059 L813.969 27.2059 L813.969 72.576 L806.515 72.576 L806.515 27.2059 M806.515 9.54393 L813.969 9.54393 L813.969 18.9825 L806.515 18.9825 L806.515 9.54393 Z" fill="#000000" fill-rule="nonzero" fill-opacity="1"></path><path clip-path="url(#clip700)" d="M864.889 35.9153 Q867.684 30.8922 871.573 28.5022 Q875.462 26.1121 880.728 26.1121 Q887.817 26.1121 891.665 31.0947 Q895.514 36.0368 895.514 45.1919 L895.514 72.576 L888.02 72.576 L888.02 45.4349 Q888.02 38.913 885.711 35.7533 Q883.402 32.5936 878.662 32.5936 Q872.869 32.5936 869.507 36.4419 Q866.145 40.2903 866.145 46.9338 L866.145 72.576 L858.651 72.576 L858.651 45.4349 Q858.651 38.8725 856.342 35.7533 Q854.033 32.5936 849.212 32.5936 Q843.5 32.5936 840.138 36.4824 Q836.776 40.3308 836.776 46.9338 L836.776 72.576 L829.282 72.576 L829.282 27.2059 L836.776 27.2059 L836.776 34.2544 Q839.328 30.082 842.893 28.0971 Q846.457 26.1121 851.359 26.1121 Q856.301 26.1121 859.744 28.6237 Q863.228 31.1352 864.889 35.9153 Z" fill="#000000" fill-rule="nonzero" fill-opacity="1"></path><path clip-path="url(#clip700)" d="M931 49.7694 Q921.966 49.7694 918.482 51.8354 Q914.999 53.9013 914.999 58.8839 Q914.999 62.8538 917.591 65.2034 Q920.224 67.5124 924.721 67.5124 Q930.919 67.5124 934.646 63.1374 Q938.413 58.7219 938.413 51.4303 L938.413 49.7694 L931 49.7694 M945.867 46.6907 L945.867 72.576 L938.413 72.576 L938.413 65.6895 Q935.861 69.8214 932.053 71.8063 Q928.245 73.7508 922.736 73.7508 Q915.768 73.7508 911.636 69.8619 Q907.545 65.9325 907.545 59.3701 Q907.545 51.7138 912.649 47.825 Q917.794 43.9361 927.962 43.9361 L938.413 43.9361 L938.413 43.2069 Q938.413 38.0623 935.01 35.2672 Q931.648 32.4315 925.531 32.4315 Q921.642 32.4315 917.956 33.3632 Q914.269 34.295 910.867 36.1584 L910.867 29.2718 Q914.958 27.692 918.806 26.9223 Q922.655 26.1121 926.301 26.1121 Q936.144 26.1121 941.005 31.2163 Q945.867 36.3204 945.867 46.6907 Z" fill="#000000" fill-rule="nonzero" fill-opacity="1"></path><path clip-path="url(#clip700)" d="M968.592 14.324 L968.592 27.2059 L983.945 27.2059 L983.945 32.9987 L968.592 32.9987 L968.592 57.6282 Q968.592 63.1779 970.091 64.7578 Q971.63 66.3376 976.289 66.3376 L983.945 66.3376 L983.945 72.576 L976.289 72.576 Q967.66 72.576 964.379 69.3758 Q961.098 66.1351 961.098 57.6282 L961.098 32.9987 L955.629 32.9987 L955.629 27.2059 L961.098 27.2059 L961.098 14.324 L968.592 14.324 Z" fill="#000000" fill-rule="nonzero" fill-opacity="1"></path><path clip-path="url(#clip700)" d="M1032.56 48.0275 L1032.56 51.6733 L998.285 51.6733 Q998.771 59.3701 1002.9 63.421 Q1007.08 67.4314 1014.49 67.4314 Q1018.78 67.4314 1022.79 66.3781 Q1026.84 65.3249 1030.81 63.2184 L1030.81 70.267 Q1026.8 71.9684 1022.59 72.8596 Q1018.38 73.7508 1014.04 73.7508 Q1003.19 73.7508 996.827 67.4314 Q990.507 61.1119 990.507 50.3365 Q990.507 39.1965 996.503 32.6746 Q1002.54 26.1121 1012.75 26.1121 Q1021.9 26.1121 1027.21 32.0264 Q1032.56 37.9003 1032.56 48.0275 M1025.1 45.84 Q1025.02 39.7232 1021.66 36.0774 Q1018.34 32.4315 1012.83 32.4315 Q1006.59 32.4315 1002.82 35.9558 Q999.095 39.4801 998.528 45.8805 L1025.1 45.84 Z" fill="#000000" fill-rule="nonzero" fill-opacity="1"></path><path clip-path="url(#clip700)" d="M1074.64 34.0924 L1074.64 9.54393 L1082.1 9.54393 L1082.1 72.576 L1074.64 72.576 L1074.64 65.7705 Q1072.3 69.8214 1068.69 71.8063 Q1065.13 73.7508 1060.1 73.7508 Q1051.88 73.7508 1046.69 67.1883 Q1041.55 60.6258 1041.55 49.9314 Q1041.55 39.2371 1046.69 32.6746 Q1051.88 26.1121 1060.1 26.1121 Q1065.13 26.1121 1068.69 28.0971 Q1072.3 30.0415 1074.64 34.0924 M1049.25 49.9314 Q1049.25 58.1548 1052.61 62.8538 Q1056.01 67.5124 1061.92 67.5124 Q1067.84 67.5124 1071.24 62.8538 Q1074.64 58.1548 1074.64 49.9314 Q1074.64 41.7081 1071.24 37.0496 Q1067.84 32.3505 1061.92 32.3505 Q1056.01 32.3505 1052.61 37.0496 Q1049.25 41.7081 1049.25 49.9314 Z" fill="#000000" fill-rule="nonzero" fill-opacity="1"></path><path clip-path="url(#clip700)" d="M1160.4 14.0809 L1160.4 22.0612 Q1155.74 19.8332 1151.61 18.7395 Q1147.48 17.6457 1143.63 17.6457 Q1136.95 17.6457 1133.3 20.2383 Q1129.7 22.8309 1129.7 27.611 Q1129.7 31.6214 1132.09 33.6873 Q1134.52 35.7128 1141.24 36.9686 L1146.18 37.9813 Q1155.34 39.7232 1159.67 44.1387 Q1164.05 48.5136 1164.05 55.8863 Q1164.05 64.6767 1158.13 69.2137 Q1152.26 73.7508 1140.88 73.7508 Q1136.58 73.7508 1131.72 72.7785 Q1126.9 71.8063 1121.72 69.9024 L1121.72 61.4765 Q1126.7 64.2716 1131.48 65.6895 Q1136.26 67.1073 1140.88 67.1073 Q1147.89 67.1073 1151.69 64.3527 Q1155.5 61.598 1155.5 56.4939 Q1155.5 52.0379 1152.75 49.5264 Q1150.03 47.0148 1143.79 45.759 L1138.81 44.7868 Q1129.66 42.9639 1125.56 39.075 Q1121.47 35.1862 1121.47 28.2591 Q1121.47 20.2383 1127.1 15.6203 Q1132.78 11.0023 1142.7 11.0023 Q1146.95 11.0023 1151.37 11.7719 Q1155.78 12.5416 1160.4 14.0809 Z" fill="#000000" fill-rule="nonzero" fill-opacity="1"></path><path clip-path="url(#clip700)" d="M1194.07 32.4315 Q1188.07 32.4315 1184.59 37.1306 Q1181.1 41.7891 1181.1 49.9314 Q1181.1 58.0738 1184.55 62.7728 Q1188.03 67.4314 1194.07 67.4314 Q1200.02 67.4314 1203.5 62.7323 Q1206.99 58.0333 1206.99 49.9314 Q1206.99 41.8701 1203.5 37.1711 Q1200.02 32.4315 1194.07 32.4315 M1194.07 26.1121 Q1203.79 26.1121 1209.34 32.4315 Q1214.89 38.7509 1214.89 49.9314 Q1214.89 61.0714 1209.34 67.4314 Q1203.79 73.7508 1194.07 73.7508 Q1184.3 73.7508 1178.75 67.4314 Q1173.24 61.0714 1173.24 49.9314 Q1173.24 38.7509 1178.75 32.4315 Q1184.3 26.1121 1194.07 26.1121 Z" fill="#000000" fill-rule="nonzero" fill-opacity="1"></path><path clip-path="url(#clip700)" d="M1226.47 54.671 L1226.47 27.2059 L1233.93 27.2059 L1233.93 54.3874 Q1233.93 60.8284 1236.44 64.0691 Q1238.95 67.2693 1243.97 67.2693 Q1250.01 67.2693 1253.49 63.421 Q1257.02 59.5726 1257.02 52.9291 L1257.02 27.2059 L1264.47 27.2059 L1264.47 72.576 L1257.02 72.576 L1257.02 65.6084 Q1254.3 69.7404 1250.7 71.7658 Q1247.13 73.7508 1242.39 73.7508 Q1234.57 73.7508 1230.52 68.8897 Q1226.47 64.0286 1226.47 54.671 M1245.23 26.1121 L1245.23 26.1121 Z" fill="#000000" fill-rule="nonzero" fill-opacity="1"></path><path clip-path="url(#clip700)" d="M1306.11 34.1734 Q1304.86 33.4443 1303.36 33.1202 Q1301.9 32.7556 1300.12 32.7556 Q1293.8 32.7556 1290.4 36.8875 Q1287.03 40.9789 1287.03 48.6757 L1287.03 72.576 L1279.54 72.576 L1279.54 27.2059 L1287.03 27.2059 L1287.03 34.2544 Q1289.38 30.1225 1293.15 28.1376 Q1296.92 26.1121 1302.31 26.1121 Q1303.08 26.1121 1304.01 26.2337 Q1304.94 26.3147 1306.07 26.5172 L1306.11 34.1734 Z" fill="#000000" fill-rule="nonzero" fill-opacity="1"></path><path clip-path="url(#clip700)" d="M1344.76 28.9478 L1344.76 35.9153 Q1341.6 34.1734 1338.4 33.3227 Q1335.24 32.4315 1332 32.4315 Q1324.75 32.4315 1320.74 37.0496 Q1316.73 41.6271 1316.73 49.9314 Q1316.73 58.2358 1320.74 62.8538 Q1324.75 67.4314 1332 67.4314 Q1335.24 67.4314 1338.4 66.5807 Q1341.6 65.6895 1344.76 63.9476 L1344.76 70.8341 Q1341.64 72.2924 1338.28 73.0216 Q1334.96 73.7508 1331.19 73.7508 Q1320.94 73.7508 1314.9 67.3098 Q1308.87 60.8689 1308.87 49.9314 Q1308.87 38.832 1314.94 32.472 Q1321.06 26.1121 1331.67 26.1121 Q1335.12 26.1121 1338.4 26.8413 Q1341.68 27.5299 1344.76 28.9478 Z" fill="#000000" fill-rule="nonzero" fill-opacity="1"></path><path clip-path="url(#clip700)" d="M1396.53 48.0275 L1396.53 51.6733 L1362.26 51.6733 Q1362.75 59.3701 1366.88 63.421 Q1371.05 67.4314 1378.46 67.4314 Q1382.76 67.4314 1386.77 66.3781 Q1390.82 65.3249 1394.79 63.2184 L1394.79 70.267 Q1390.78 71.9684 1386.56 72.8596 Q1382.35 73.7508 1378.02 73.7508 Q1367.16 73.7508 1360.8 67.4314 Q1354.48 61.1119 1354.48 50.3365 Q1354.48 39.1965 1360.48 32.6746 Q1366.51 26.1121 1376.72 26.1121 Q1385.88 26.1121 1391.18 32.0264 Q1396.53 37.9003 1396.53 48.0275 M1389.08 45.84 Q1388.99 39.7232 1385.63 36.0774 Q1382.31 32.4315 1376.8 32.4315 Q1370.56 32.4315 1366.8 35.9558 Q1363.07 39.4801 1362.5 45.8805 L1389.08 45.84 Z" fill="#000000" fill-rule="nonzero" fill-opacity="1"></path><path clip-path="url(#clip700)" d="M1471.71 14.0809 L1471.71 22.0612 Q1467.06 19.8332 1462.92 18.7395 Q1458.79 17.6457 1454.94 17.6457 Q1448.26 17.6457 1444.61 20.2383 Q1441.01 22.8309 1441.01 27.611 Q1441.01 31.6214 1443.4 33.6873 Q1445.83 35.7128 1452.55 36.9686 L1457.5 37.9813 Q1466.65 39.7232 1470.99 44.1387 Q1475.36 48.5136 1475.36 55.8863 Q1475.36 64.6767 1469.45 69.2137 Q1463.57 73.7508 1452.19 73.7508 Q1447.9 73.7508 1443.03 72.7785 Q1438.21 71.8063 1433.03 69.9024 L1433.03 61.4765 Q1438.01 64.2716 1442.79 65.6895 Q1447.57 67.1073 1452.19 67.1073 Q1459.2 67.1073 1463 64.3527 Q1466.81 61.598 1466.81 56.4939 Q1466.81 52.0379 1464.06 49.5264 Q1461.34 47.0148 1455.11 45.759 L1450.12 44.7868 Q1440.97 42.9639 1436.88 39.075 Q1432.79 35.1862 1432.79 28.2591 Q1432.79 20.2383 1438.42 15.6203 Q1444.09 11.0023 1454.01 11.0023 Q1458.27 11.0023 1462.68 11.7719 Q1467.1 12.5416 1471.71 14.0809 Z" fill="#000000" fill-rule="nonzero" fill-opacity="1"></path><path clip-path="url(#clip700)" d="M1487.8 27.2059 L1495.25 27.2059 L1495.25 72.576 L1487.8 72.576 L1487.8 27.2059 M1487.8 9.54393 L1495.25 9.54393 L1495.25 18.9825 L1487.8 18.9825 L1487.8 9.54393 Z" fill="#000000" fill-rule="nonzero" fill-opacity="1"></path><path clip-path="url(#clip700)" d="M1540.7 49.3643 Q1540.7 41.2625 1537.34 36.8065 Q1534.02 32.3505 1527.98 32.3505 Q1521.99 32.3505 1518.62 36.8065 Q1515.3 41.2625 1515.3 49.3643 Q1515.3 57.4256 1518.62 61.8816 Q1521.99 66.3376 1527.98 66.3376 Q1534.02 66.3376 1537.34 61.8816 Q1540.7 57.4256 1540.7 49.3643 M1548.15 66.9452 Q1548.15 78.5308 1543.01 84.1616 Q1537.87 89.8329 1527.25 89.8329 Q1523.32 89.8329 1519.84 89.2252 Q1516.36 88.6581 1513.07 87.4428 L1513.07 80.1917 Q1516.36 81.9741 1519.56 82.8248 Q1522.76 83.6755 1526.08 83.6755 Q1533.41 83.6755 1537.06 79.8271 Q1540.7 76.0193 1540.7 68.282 L1540.7 64.5957 Q1538.39 68.6061 1534.79 70.5911 Q1531.18 72.576 1526.16 72.576 Q1517.81 72.576 1512.71 66.2161 Q1507.61 59.8562 1507.61 49.3643 Q1507.61 38.832 1512.71 32.472 Q1517.81 26.1121 1526.16 26.1121 Q1531.18 26.1121 1534.79 28.0971 Q1538.39 30.082 1540.7 34.0924 L1540.7 27.2059 L1548.15 27.2059 L1548.15 66.9452 Z" fill="#000000" fill-rule="nonzero" fill-opacity="1"></path><path clip-path="url(#clip700)" d="M1601.22 45.1919 L1601.22 72.576 L1593.77 72.576 L1593.77 45.4349 Q1593.77 38.994 1591.26 35.7938 Q1588.75 32.5936 1583.72 32.5936 Q1577.69 32.5936 1574.2 36.4419 Q1570.72 40.2903 1570.72 46.9338 L1570.72 72.576 L1563.22 72.576 L1563.22 27.2059 L1570.72 27.2059 L1570.72 34.2544 Q1573.39 30.163 1577 28.1376 Q1580.64 26.1121 1585.38 26.1121 Q1593.2 26.1121 1597.21 30.9732 Q1601.22 35.7938 1601.22 45.1919 Z" fill="#000000" fill-rule="nonzero" fill-opacity="1"></path><path clip-path="url(#clip700)" d="M1636.71 49.7694 Q1627.67 49.7694 1624.19 51.8354 Q1620.71 53.9013 1620.71 58.8839 Q1620.71 62.8538 1623.3 65.2034 Q1625.93 67.5124 1630.43 67.5124 Q1636.63 67.5124 1640.35 63.1374 Q1644.12 58.7219 1644.12 51.4303 L1644.12 49.7694 L1636.71 49.7694 M1651.57 46.6907 L1651.57 72.576 L1644.12 72.576 L1644.12 65.6895 Q1641.57 69.8214 1637.76 71.8063 Q1633.95 73.7508 1628.44 73.7508 Q1621.48 73.7508 1617.34 69.8619 Q1613.25 65.9325 1613.25 59.3701 Q1613.25 51.7138 1618.36 47.825 Q1623.5 43.9361 1633.67 43.9361 L1644.12 43.9361 L1644.12 43.2069 Q1644.12 38.0623 1640.72 35.2672 Q1637.36 32.4315 1631.24 32.4315 Q1627.35 32.4315 1623.66 33.3632 Q1619.98 34.295 1616.57 36.1584 L1616.57 29.2718 Q1620.67 27.692 1624.51 26.9223 Q1628.36 26.1121 1632.01 26.1121 Q1641.85 26.1121 1646.71 31.2163 Q1651.57 36.3204 1651.57 46.6907 Z" fill="#000000" fill-rule="nonzero" fill-opacity="1"></path><path clip-path="url(#clip700)" d="M1666.93 9.54393 L1674.38 9.54393 L1674.38 72.576 L1666.93 72.576 L1666.93 9.54393 Z" fill="#000000" fill-rule="nonzero" fill-opacity="1"></path><path clip-path="url(#clip700)" d="M1718.9 28.5427 L1718.9 35.5912 Q1715.74 33.9709 1712.34 33.1607 Q1708.94 32.3505 1705.29 32.3505 Q1699.74 32.3505 1696.94 34.0519 Q1694.19 35.7533 1694.19 39.156 Q1694.19 41.7486 1696.18 43.2475 Q1698.16 44.7058 1704.16 46.0426 L1706.71 46.6097 Q1714.65 48.3111 1717.97 51.4303 Q1721.33 54.509 1721.33 60.0587 Q1721.33 66.3781 1716.31 70.0644 Q1711.33 73.7508 1702.58 73.7508 Q1698.93 73.7508 1694.96 73.0216 Q1691.03 72.3329 1686.66 70.9151 L1686.66 63.2184 Q1690.79 65.3654 1694.8 66.4591 Q1698.81 67.5124 1702.74 67.5124 Q1708 67.5124 1710.84 65.73 Q1713.67 63.9071 1713.67 60.6258 Q1713.67 57.5877 1711.61 55.9673 Q1709.58 54.3469 1702.66 52.8481 L1700.06 52.2405 Q1693.14 50.7821 1690.06 47.7845 Q1686.98 44.7463 1686.98 39.4801 Q1686.98 33.0797 1691.52 29.5959 Q1696.05 26.1121 1704.4 26.1121 Q1708.53 26.1121 1712.18 26.7198 Q1715.82 27.3274 1718.9 28.5427 Z" fill="#000000" fill-rule="nonzero" fill-opacity="1"></path><polyline clip-path="url(#clip702)" style="stroke:#009af9; stroke-linecap:round; stroke-linejoin:round; stroke-width:4; stroke-opacity:1; fill:none" points="112.494,581.714 114.672,561.831 116.849,540.748 119.026,519.772 121.203,498.956 123.38,478.353 125.558,458.015 127.735,437.993 129.912,418.338 132.089,399.099 134.266,380.326 136.444,362.066 138.621,344.365 140.798,327.268 142.975,310.818 145.152,295.057 147.329,280.025 149.507,265.759 151.684,252.297 153.861,239.671 156.038,227.914 158.215,217.056 160.393,207.124 162.57,198.144 164.747,190.137 166.924,183.125 169.101,177.125 171.279,172.152 173.456,168.219 175.633,165.336 177.81,163.51 179.987,162.745 182.164,163.045 184.342,164.407 186.519,164.322 188.696,167.797 190.873,172.317 193.05,177.869 195.228,184.44 197.405,192.014 199.582,200.571 201.759,210.09 203.936,220.546 206.114,231.913 208.291,244.162 210.468,257.263 212.645,271.181 214.822,285.883 216.999,301.33 219.177,317.483 221.354,334.302 223.531,351.745 225.708,369.766 227.885,388.32 230.063,407.361 232.24,426.84 234.417,446.708 236.594,466.914 238.771,487.408 240.949,508.137 243.126,529.049 245.303,550.092 247.48,571.211 249.657,592.354 251.834,613.466 254.012,634.495 256.189,655.388 258.366,678.596 260.543,699.057 262.72,719.223 264.898,739.045 267.075,758.472 269.252,777.455 271.429,795.945 273.606,813.896 275.784,831.263 277.961,848.001 280.138,864.069 282.315,879.425 284.492,894.03 286.669,907.848 288.847,920.844 291.024,932.985 293.201,944.239 295.378,954.58 297.555,963.979 299.733,972.415 301.91,979.864 304.087,986.309 306.264,991.733 308.441,996.122 310.619,999.466 312.796,1001.76 314.973,1002.98 317.15,1003.15 319.327,1002.25 321.505,1000.29 323.682,997.28 325.859,993.216 328.036,988.114 330.213,979.481 332.39,972.344 334.568,964.214 336.745,955.113 338.922,945.064 341.099,934.093 343.276,922.226 345.454,909.494 347.631,895.929 349.808,881.565 351.985,866.44 354.162,850.591 356.34,834.057 358.517,816.882 360.694,799.109 362.871,780.782 365.048,761.948 367.225,742.655 369.403,722.951 371.58,702.887 373.757,682.513 375.934,661.88 378.111,641.041 380.289,620.049 382.466,598.957 384.643,577.818 386.82,556.686 388.997,535.613 391.175,514.655 393.352,493.863 395.529,473.29 397.706,452.988 399.883,433.009 402.06,413.403 404.238,396.726 406.415,378.015 408.592,359.822 410.769,342.194 412.946,325.175 415.124,308.809 417.301,293.137 419.478,278.199 421.655,264.032 423.832,250.672 426.01,238.153 428.187,226.507 430.364,215.764 432.541,205.949 434.718,197.089 436.895,189.206 439.073,182.32 441.25,176.447 443.427,171.604 445.604,167.801 447.781,165.05 449.959,163.356 452.136,162.725 454.313,163.157 456.49,164.652 458.667,167.205 460.845,170.811 463.022,175.46 465.199,181.141 467.376,187.838 469.553,195.536 471.731,204.215 473.908,213.852 476.085,221.918 478.262,233.396 480.439,245.754 482.616,258.958 484.794,272.977 486.971,287.773 489.148,303.311 491.325,319.55 493.502,336.449 495.68,353.966 497.857,372.057 500.034,390.675 502.211,409.773 504.388,429.303 506.566,449.216 508.743,469.461 510.92,489.987 513.097,510.742 515.274,531.673 517.451,552.728 519.629,573.854 521.806,594.995 523.983,616.1 526.16,637.115 528.337,657.987 530.515,678.662 532.692,699.089 534.869,719.215 537.046,738.99 539.223,758.364 541.401,777.288 543.578,795.714 545.755,813.594 547.932,833.39 550.109,850.047 552.286,866.028 554.464,881.292 556.641,895.801 558.818,909.518 560.995,922.409 563.172,934.441 565.35,945.583 567.527,955.807 569.704,965.087 571.881,973.4 574.058,980.725 576.236,987.043 578.413,992.338 580.59,996.598 582.767,999.81 584.944,1001.97 587.121,1003.06 589.299,1003.1 591.476,1002.07 593.653,999.976 595.83,996.829 598.007,992.635 600.185,987.404 602.362,981.15 604.539,973.887 606.716,965.635 608.893,956.414 611.071,946.249 613.248,935.163 615.425,923.187 617.602,910.349 619.779,896.682 621.956,879.716 624.134,864.497 626.311,848.56 628.488,831.945 630.665,814.693 632.842,796.848 635.02,778.455 637.197,759.561 639.374,740.214 641.551,720.462 643.728,700.356 645.906,679.947 648.083,659.285 650.26,638.425 652.437,617.417 654.614,596.316 656.792,575.175 658.969,554.047 661.146,532.986 663.323,512.046 665.5,491.278 667.677,470.736 669.855,450.472 672.032,430.537 674.209,410.981 676.386,391.855 678.563,373.205 680.741,355.081 682.918,337.527 685.095,320.587 687.272,304.306 689.449,288.723 691.627,273.879 693.804,262.317 695.981,249.06 698.158,236.649 700.335,225.114 702.512,214.485 704.69,204.789 706.867,196.05 709.044,188.29 711.221,181.53 713.398,175.785 715.576,171.071 717.753,167.4 719.93,164.78 722.107,163.219 724.284,162.721 726.462,163.286 728.639,164.913 730.816,167.598 732.993,171.335 735.17,176.114 737.347,181.923 739.525,188.746 741.702,196.568 743.879,205.367 746.056,215.123 748.233,225.809 750.411,237.399 752.588,249.865 754.765,263.173 756.942,277.29 759.119,292.182 761.297,307.809 763.474,324.133 765.651,338.606 767.828,356.197 770.005,374.356 772.182,393.037 774.36,412.191 776.537,431.772 778.714,451.729 780.891,472.012 783.068,492.57 785.246,513.35 787.423,534.3 789.6,555.366 791.777,576.496 793.954,597.637 796.132,618.733 798.309,639.733 800.486,660.583 802.663,681.23 804.84,701.622 807.018,721.707 809.195,741.435 811.372,760.756 813.549,779.619 815.726,797.979 817.903,815.789 820.081,833.002 822.258,849.577 824.435,865.47 826.612,880.642 828.789,895.054 830.967,908.67 833.144,921.455 835.321,933.377 837.498,944.405 839.675,957.019 841.853,966.179 844.03,974.37 846.207,981.57 848.384,987.761 850.561,992.928 852.738,997.057 854.916,1000.14 857.093,1002.16 859.27,1003.13 861.447,1003.03 863.624,1001.86 865.802,999.64 867.979,996.362 870.156,992.038 872.333,986.678 874.51,980.296 876.688,972.909 878.865,964.535 881.042,955.195 883.219,944.913 885.396,933.714 887.573,921.628 889.751,908.685 891.928,894.917 894.105,880.36 896.282,865.05 898.459,849.026 900.637,832.328 902.814,814.999 904.991,797.083 907.168,778.625 909.345,759.672 911.523,737.766 913.7,717.967 915.877,697.82 918.054,677.377 920.231,656.688 922.408,635.806 924.586,614.784 926.763,593.675 928.94,572.532 931.117,551.41 933.294,530.361 935.472,509.439 937.649,488.697 939.826,468.187 942.003,447.961 944.18,428.071 946.358,408.566 948.535,389.496 950.712,370.91 952.889,352.854 955.066,335.375 957.244,318.515 959.421,302.319 961.598,286.827 963.775,272.077 965.952,258.109 968.129,244.956 970.307,232.653 972.484,221.23 974.661,210.716 976.838,201.138 979.015,192.52 981.193,184.885 983.37,180.756 985.547,175.139 987.724,170.555 989.901,167.015 992.079,164.527 994.256,163.099 996.433,162.733 998.61,163.431 1000.79,165.191 1002.96,168.008 1005.14,171.876 1007.32,176.784 1009.5,182.72 1011.67,189.67 1013.85,197.615 1016.03,206.535 1018.2,216.408 1020.38,227.209 1022.56,238.91 1024.74,251.483 1026.91,264.894 1029.09,279.11 1031.27,294.096 1033.45,309.812 1035.62,326.22 1037.8,343.278 1039.98,360.943 1042.15,379.169 1044.33,397.912 1046.51,417.123 1048.69,436.753 1050.86,456.754 1053.04,477.074 1055.22,495.156 1057.39,515.96 1059.57,536.928 1061.75,558.005 1063.93,579.139 1066.1,600.277 1068.28,621.365 1070.46,642.349 1072.63,663.176 1074.81,683.794 1076.99,704.151 1079.17,724.194 1081.34,743.874 1083.52,763.139 1085.7,781.943 1087.87,800.237 1090.05,817.974 1092.23,835.11 1094.41,851.602 1096.58,867.407 1098.76,882.486 1100.94,896.8 1103.12,910.314 1105.29,922.993 1107.47,934.805 1109.65,945.72 1111.82,955.71 1114,964.751 1116.18,972.819 1118.36,979.894 1120.53,985.958 1122.71,990.995 1124.89,994.993 1127.06,997.943 1129.24,1002.34 1131.42,1003.17 1133.6,1002.94 1135.77,1001.64 1137.95,999.288 1140.13,995.878 1142.3,991.424 1144.48,985.936 1146.66,979.428 1148.84,971.916 1151.01,963.42 1153.19,953.961 1155.37,943.562 1157.54,932.252 1159.72,920.057 1161.9,907.008 1164.08,893.14 1166.25,878.486 1168.43,863.085 1170.61,846.974 1172.79,830.196 1174.96,812.791 1177.14,794.805 1179.32,776.282 1181.49,757.27 1183.67,737.817 1185.85,717.973 1188.03,697.786 1190.2,677.309 1192.38,656.593 1194.56,635.69 1196.73,614.654 1198.91,593.538 1201.09,569.89 1203.27,548.774 1205.44,527.738 1207.62,506.835 1209.8,486.119 1211.97,465.642 1214.15,445.455 1216.33,425.61 1218.51,406.157 1220.68,387.146 1222.86,368.623 1225.04,350.637 1227.21,333.232 1229.39,316.454 1231.57,300.343 1233.75,284.942 1235.92,270.288 1238.1,256.42 1240.28,243.371 1242.46,231.176 1244.63,219.865 1246.81,209.467 1248.99,200.008 1251.16,191.512 1253.34,184 1255.52,177.492 1257.7,172.004 1259.87,167.549 1262.05,164.14 1264.23,161.785 1266.4,160.489 1268.58,160.256 1270.76,161.087 1272.94,165.485 1275.11,168.434 1277.29,172.433 1279.47,177.47 1281.64,183.534 1283.82,190.609 1286,198.677 1288.18,207.718 1290.35,217.708 1292.53,228.623 1294.71,240.435 1296.88,253.114 1299.06,266.628 1301.24,280.942 1303.42,296.021 1305.59,311.826 1307.77,328.318 1309.95,345.454 1312.13,363.191 1314.3,381.485 1316.48,400.288 1318.66,419.554 1320.83,439.234 1323.01,459.277 1325.19,479.634 1327.37,500.252 1329.54,521.079 1331.72,542.063 1333.9,563.151 1336.07,584.288 1338.25,605.423 1340.43,626.5 1342.61,647.468 1344.78,668.272 1346.96,686.354 1349.14,706.674 1351.31,726.675 1353.49,746.305 1355.67,765.516 1357.85,784.259 1360.02,802.485 1362.2,820.15 1364.38,837.208 1366.55,853.616 1368.73,869.332 1370.91,884.318 1373.09,898.534 1375.26,911.945 1377.44,924.518 1379.62,936.219 1381.8,947.02 1383.97,956.893 1386.15,965.813 1388.33,973.758 1390.5,980.707 1392.68,986.644 1394.86,991.552 1397.04,995.42 1399.21,998.237 1401.39,999.997 1403.57,1000.69 1405.74,1000.33 1407.92,998.901 1410.1,996.413 1412.28,992.873 1414.45,988.289 1416.63,982.672 1418.81,978.543 1420.98,970.907 1423.16,962.29 1425.34,952.712 1427.52,942.198 1429.69,930.775 1431.87,918.472 1434.05,905.319 1436.22,891.35 1438.4,876.601 1440.58,861.109 1442.76,844.913 1444.93,828.053 1447.11,810.574 1449.29,792.518 1451.47,773.932 1453.64,754.862 1455.82,735.357 1458,715.467 1460.17,695.241 1462.35,674.731 1464.53,653.989 1466.71,633.067 1468.88,612.018 1471.06,590.896 1473.24,569.753 1475.41,548.644 1477.59,527.622 1479.77,506.74 1481.95,486.051 1484.12,465.607 1486.3,445.461 1488.48,425.662 1490.65,403.756 1492.83,384.803 1495.01,366.345 1497.19,348.429 1499.36,331.1 1501.54,314.402 1503.72,298.378 1505.89,283.068 1508.07,268.511 1510.25,254.743 1512.43,241.8 1514.6,229.713 1516.78,218.515 1518.96,208.233 1521.14,198.893 1523.31,190.519 1525.49,183.131 1527.67,176.75 1529.84,171.39 1532.02,167.066 1534.2,163.788 1536.38,161.565 1538.55,160.402 1540.73,160.302 1542.91,161.266 1545.08,163.291 1547.26,166.371 1549.44,170.5 1551.62,175.667 1553.79,181.858 1555.97,189.058 1558.15,197.248 1560.32,206.409 1562.5,216.517 1564.68,230.051 1566.86,241.973 1569.03,254.758 1571.21,268.374 1573.39,282.786 1575.56,297.958 1577.74,313.851 1579.92,330.426 1582.1,347.639 1584.27,365.449 1586.45,383.808 1588.63,402.672 1590.81,421.993 1592.98,441.72 1595.16,461.806 1597.34,482.198 1599.51,502.845 1601.69,523.695 1603.87,544.695 1606.05,565.791 1608.22,586.931 1610.4,608.062 1612.58,629.128 1614.75,650.078 1616.93,670.858 1619.11,691.416 1621.29,711.699 1623.46,731.656 1625.64,751.236 1627.82,770.391 1629.99,789.072 1632.17,807.231 1634.35,824.822 1636.53,839.295 1638.7,855.619 1640.88,871.246 1643.06,886.138 1645.24,900.255 1647.41,913.563 1649.59,926.028 1651.77,937.619 1653.94,948.305 1656.12,958.06 1658.3,966.86 1660.48,974.682 1662.65,981.505 1664.83,987.314 1667.01,992.093 1669.18,995.829 1671.36,998.515 1673.54,1000.14 1675.72,1000.71 1677.89,1000.21 1680.07,998.648 1682.25,996.028 1684.42,992.357 1686.6,987.643 1688.78,981.898 1690.96,975.137 1693.13,967.378 1695.31,958.639 1697.49,948.942 1699.66,938.313 1701.84,926.779 1704.02,914.367 1706.2,901.111 1708.37,889.549 1710.55,874.705 1712.73,859.122 1714.91,842.841 1717.08,825.901 1719.26,808.347 1721.44,790.223 1723.61,771.573 1725.79,752.447 1727.97,732.891 1730.15,712.956 1732.32,692.692 1734.5,672.15 1736.68,651.382 1738.85,630.442 1741.03,609.381 1743.21,588.253 1745.39,567.112 1747.56,546.011 1749.74,525.003 1751.92,504.143 1754.09,483.481 1756.27,463.072 1758.45,442.966 1760.63,423.214 1762.8,403.867 1764.98,384.973 1767.16,366.58 1769.33,348.735 1771.51,331.483 1773.69,314.867 1775.87,298.93 1778.04,283.712 1780.22,266.746 1782.4,253.079 1784.58,240.241 1786.75,228.265 1788.93,217.179 1791.11,207.013 1793.28,197.793 1795.46,189.541 1797.64,182.278 1799.82,176.024 1801.99,170.793 1804.17,166.599 1806.35,163.452 1808.52,161.361 1810.7,160.331 1812.88,160.364 1815.06,161.461 1817.23,163.618 1819.41,166.83 1821.59,171.089 1823.76,176.385 1825.94,182.703 1828.12,190.028 1830.3,198.341 1832.47,207.621 1834.65,217.845 1836.83,228.987 1839,241.019 1841.18,253.91 1843.36,267.627 1845.54,282.136 1847.71,297.4 1849.89,313.381 1852.07,330.037 1854.25,349.834 1856.42,367.714 1858.6,386.14 1860.78,405.063 1862.95,424.437 1865.13,444.213 1867.31,464.339 1869.49,484.766 1871.66,505.441 1873.84,526.313 1876.02,547.327 1878.19,568.432 1880.37,589.574 1882.55,610.7 1884.73,631.755 1886.9,652.686 1889.08,673.441 1891.26,693.967 1893.43,714.212 1895.61,734.125 1897.79,753.655 1899.97,772.753 1902.14,791.371 1904.32,809.461 1906.5,826.979 1908.67,843.878 1910.85,860.117 1913.03,875.654 1915.21,890.451 1917.38,904.469 1919.56,917.674 1921.74,930.031 1923.92,941.51 1926.09,949.576 1928.27,959.213 1930.45,967.892 1932.62,975.589 1934.8,982.287 1936.98,987.968 1939.16,992.617 1941.33,996.223 1943.51,998.776 1945.69,1000.27 1947.86,1000.7 1950.04,1000.07 1952.22,998.378 1954.4,995.627 1956.57,991.824 1958.75,986.981 1960.93,981.108 1963.1,974.222 1965.28,966.338 1967.46,957.479 1969.64,947.664 1971.81,936.921 1973.99,925.275 1976.17,912.756 1978.34,899.396 1980.52,885.229 1982.7,870.291 1984.88,854.619 1987.05,838.253 1989.23,821.234 1991.41,803.606 1993.59,785.413 1995.76,766.702 1997.94,750.025 2000.12,730.419 2002.29,710.44 2004.47,690.138 2006.65,669.565 2008.83,648.773 2011,627.815 2013.18,606.742 2015.36,585.61 2017.53,564.471 2019.71,543.379 2021.89,522.387 2024.07,501.548 2026.24,480.915 2028.42,460.541 2030.6,440.477 2032.77,420.773 2034.95,401.48 2037.13,382.646 2039.31,364.319 2041.48,346.545 2043.66,329.37 2045.84,312.837 2048.01,296.988 2050.19,281.863 2052.37,267.499 2054.55,253.934 2056.72,241.202 2058.9,229.335 2061.08,218.363 2063.26,208.314 2065.43,199.214 2067.61,191.084 2069.79,183.947 2071.96,175.314 2074.14,170.212 2076.32,166.148 2078.5,163.133 2080.67,161.174 2082.85,160.277 2085.03,160.443 2087.2,161.673 2089.38,163.962 2091.56,167.306 2093.74,171.695 2095.91,177.119 2098.09,183.564 2100.27,191.013 2102.44,199.449 2104.62,208.848 2106.8,219.188 2108.98,230.443 2111.15,242.584 2113.33,255.58 2115.51,269.398 2117.68,284.003 2119.86,299.359 2122.04,315.427 2124.22,332.165 2126.39,349.532 2128.57,367.483 2130.75,385.973 2132.93,404.956 2135.1,424.383 2137.28,444.205 2139.46,464.371 2141.63,484.832 2143.81,508.04 2145.99,528.933 2148.17,549.962 2150.34,571.074 2152.52,592.217 2154.7,613.336 2156.87,634.379 2159.05,655.291 2161.23,676.02 2163.41,696.514 2165.58,716.72 2167.76,736.588 2169.94,756.067 2172.11,775.108 2174.29,793.662 2176.47,811.683 2178.65,829.126 2180.82,845.945 2183,862.098 2185.18,877.545 2187.35,892.247 2189.53,906.165 2191.71,919.266 2193.89,931.515 2196.06,942.882 2198.24,953.338 2200.42,962.857 2202.6,971.414 2204.77,978.987 2206.95,985.559 2209.13,991.111 2211.3,995.631 2213.48,999.105 2215.66,999.021 2217.84,1000.38 2220.01,1000.68 2222.19,999.918 2224.37,998.092 2226.54,995.209 2228.72,991.276 2230.9,986.303 2233.08,980.303 2235.25,973.29 2237.43,965.284 2239.61,956.303 2241.78,946.372 2243.96,935.514 2246.14,923.757 2248.32,911.131 2250.49,897.669 2252.67,883.403 2254.85,868.371 2257.02,852.61 2259.2,836.16 2261.38,819.063 2263.56,801.362 2265.73,783.102 2267.91,764.329 2270.09,745.09 2272.27,725.435 2274.44,705.413 2276.62,685.075 2278.8,664.471 2280.97,643.656 2283.15,622.68 2285.33,601.597 2287.51,580.461 "></polyline>
<polyline clip-path="url(#clip702)" style="stroke:#e26f46; stroke-linecap:round; stroke-linejoin:round; stroke-width:4; stroke-opacity:1; fill:none" points="112.494,1087.46 114.672,1384.71 116.849,1384.8 119.026,1384.89 121.203,1384.98 123.38,1385.06 125.558,1385.15 127.735,1385.24 129.912,1385.32 132.089,1385.4 134.266,1385.48 136.444,1385.56 138.621,1385.63 140.798,1385.7 142.975,1385.77 145.152,1385.84 147.329,1385.9 149.507,1385.96 151.684,1386.02 153.861,1386.07 156.038,1386.12 158.215,1386.17 160.393,1386.21 162.57,1386.25 164.747,1386.28 166.924,1386.31 169.101,1386.33 171.279,1386.36 173.456,1386.37 175.633,1386.38 177.81,1386.39 179.987,1386.4 182.164,1386.39 184.342,1386.39 186.519,792.057 188.696,792.042 190.873,792.023 193.05,792 195.228,791.972 197.405,791.94 199.582,791.904 201.759,791.864 203.936,791.82 206.114,791.772 208.291,791.72 210.468,791.665 212.645,791.606 214.822,791.544 216.999,791.479 219.177,791.411 221.354,791.34 223.531,791.267 225.708,791.191 227.885,791.112 230.063,791.032 232.24,790.95 234.417,790.866 236.594,790.781 238.771,790.695 240.949,790.607 243.126,790.519 245.303,790.43 247.48,790.341 249.657,790.252 251.834,790.163 254.012,790.075 256.189,789.986 258.366,1384.22 260.543,1384.13 262.72,1384.05 264.898,1383.97 267.075,1383.88 269.252,1383.8 271.429,1383.73 273.606,1383.65 275.784,1383.58 277.961,1383.51 280.138,1383.44 282.315,1383.37 284.492,1383.31 286.669,1383.25 288.847,1383.2 291.024,1383.15 293.201,1383.1 295.378,1383.06 297.555,1383.02 299.733,1382.98 301.91,1382.95 304.087,1382.92 306.264,1382.9 308.441,1382.88 310.619,1382.87 312.796,1382.86 314.973,1382.85 317.15,1382.85 319.327,1382.86 321.505,1382.86 323.682,1382.88 325.859,1382.89 328.036,1382.92 330.213,788.62 332.39,788.65 334.568,788.684 336.745,788.723 338.922,788.765 341.099,788.811 343.276,788.861 345.454,788.915 347.631,788.972 349.808,789.033 351.985,789.097 354.162,789.163 356.34,789.233 358.517,789.306 360.694,789.381 362.871,789.458 365.048,789.537 367.225,789.619 369.403,789.702 371.58,789.786 373.757,789.872 375.934,789.959 378.111,790.047 380.289,790.135 382.466,790.224 384.643,790.314 386.82,790.403 388.997,790.491 391.175,790.58 393.352,790.667 395.529,790.754 397.706,790.84 399.883,790.924 402.06,791.007 404.238,1385.41 406.415,1385.49 408.592,1385.56 410.769,1385.64 412.946,1385.71 415.124,1385.78 417.301,1385.85 419.478,1385.91 421.655,1385.97 423.832,1386.02 426.01,1386.08 428.187,1386.13 430.364,1386.17 432.541,1386.21 434.718,1386.25 436.895,1386.28 439.073,1386.31 441.25,1386.34 443.427,1386.36 445.604,1386.37 447.781,1386.39 449.959,1386.39 452.136,1386.4 454.313,1386.39 456.49,1386.39 458.667,1386.38 460.845,1386.36 463.022,1386.34 465.199,1386.32 467.376,1386.29 469.553,1386.26 471.731,1386.22 473.908,1386.18 476.085,791.814 478.262,791.766 480.439,791.714 482.616,791.658 484.794,791.599 486.971,791.536 489.148,791.471 491.325,791.402 493.502,791.331 495.68,791.257 497.857,791.181 500.034,791.103 502.211,791.022 504.388,790.94 506.566,790.856 508.743,790.77 510.92,790.684 513.097,790.596 515.274,790.508 517.451,790.419 519.629,790.33 521.806,790.241 523.983,790.152 526.16,790.064 528.337,789.976 530.515,789.888 532.692,789.802 534.869,789.717 537.046,789.634 539.223,789.552 541.401,789.473 543.578,789.395 545.755,789.319 547.932,1383.57 550.109,1383.5 552.286,1383.43 554.464,1383.37 556.641,1383.3 558.818,1383.25 560.995,1383.19 563.172,1383.14 565.35,1383.09 567.527,1383.05 569.704,1383.01 571.881,1382.98 574.058,1382.95 576.236,1382.92 578.413,1382.9 580.59,1382.88 582.767,1382.87 584.944,1382.86 587.121,1382.85 589.299,1382.85 591.476,1382.86 593.653,1382.87 595.83,1382.88 598.007,1382.9 600.185,1382.92 602.362,1382.95 604.539,1382.98 606.716,1383.01 608.893,1383.05 611.071,1383.09 613.248,1383.14 615.425,1383.19 617.602,1383.24 619.779,1383.3 621.956,789.041 624.134,789.105 626.311,789.172 628.488,789.242 630.665,789.315 632.842,789.39 635.02,789.468 637.197,789.547 639.374,789.629 641.551,789.712 643.728,789.797 645.906,789.883 648.083,789.97 650.26,790.058 652.437,790.147 654.614,790.236 656.792,790.325 658.969,790.414 661.146,790.503 663.323,790.591 665.5,790.678 667.677,790.765 669.855,790.85 672.032,790.934 674.209,791.017 676.386,791.098 678.563,791.176 680.741,791.253 682.918,791.327 685.095,791.398 687.272,791.467 689.449,791.532 691.627,791.595 693.804,1385.98 695.981,1386.03 698.158,1386.08 700.335,1386.13 702.512,1386.18 704.69,1386.22 706.867,1386.26 709.044,1386.29 711.221,1386.32 713.398,1386.34 715.576,1386.36 717.753,1386.38 719.93,1386.39 722.107,1386.39 724.284,1386.4 726.462,1386.39 728.639,1386.39 730.816,1386.38 732.993,1386.36 735.17,1386.34 737.347,1386.31 739.525,1386.29 741.702,1386.25 743.879,1386.22 746.056,1386.17 748.233,1386.13 750.411,1386.08 752.588,1386.03 754.765,1385.97 756.942,1385.91 759.119,1385.85 761.297,1385.78 763.474,1385.72 765.651,791.322 767.828,791.248 770.005,791.171 772.182,791.093 774.36,791.012 776.537,790.929 778.714,790.845 780.891,790.76 783.068,790.673 785.246,790.585 787.423,790.497 789.6,790.408 791.777,790.319 793.954,790.23 796.132,790.141 798.309,790.052 800.486,789.965 802.663,789.878 804.84,789.792 807.018,789.707 809.195,789.624 811.372,789.542 813.549,789.463 815.726,789.385 817.903,789.31 820.081,789.238 822.258,789.168 824.435,789.101 826.612,789.037 828.789,788.976 830.967,788.919 833.144,788.865 835.321,788.814 837.498,788.768 839.675,1383.05 841.853,1383.01 844.03,1382.97 846.207,1382.94 848.384,1382.92 850.561,1382.9 852.738,1382.88 854.916,1382.86 857.093,1382.86 859.27,1382.85 861.447,1382.85 863.624,1382.86 865.802,1382.87 867.979,1382.88 870.156,1382.9 872.333,1382.92 874.51,1382.95 876.688,1382.98 878.865,1383.02 881.042,1383.05 883.219,1383.1 885.396,1383.15 887.573,1383.2 889.751,1383.25 891.928,1383.31 894.105,1383.37 896.282,1383.43 898.459,1383.5 900.637,1383.57 902.814,1383.65 904.991,1383.72 907.168,1383.8 909.345,1383.88 911.523,789.639 913.7,789.723 915.877,789.808 918.054,789.894 920.231,789.981 922.408,790.069 924.586,790.158 926.763,790.247 928.94,790.336 931.117,790.425 933.294,790.514 935.472,790.602 937.649,790.689 939.826,790.776 942.003,790.861 944.18,790.945 946.358,791.027 948.535,791.108 950.712,791.186 952.889,791.262 955.066,791.336 957.244,791.407 959.421,791.475 961.598,791.54 963.775,791.603 965.952,791.661 968.129,791.717 970.307,791.769 972.484,791.817 974.661,791.861 976.838,791.902 979.015,791.938 981.193,791.97 983.37,1386.32 985.547,1386.34 987.724,1386.36 989.901,1386.38 992.079,1386.39 994.256,1386.39 996.433,1386.4 998.61,1386.39 1000.79,1386.39 1002.96,1386.37 1005.14,1386.36 1007.32,1386.34 1009.5,1386.31 1011.67,1386.28 1013.85,1386.25 1016.03,1386.21 1018.2,1386.17 1020.38,1386.12 1022.56,1386.07 1024.74,1386.02 1026.91,1385.96 1029.09,1385.9 1031.27,1385.84 1033.45,1385.78 1035.62,1385.71 1037.8,1385.63 1039.98,1385.56 1042.15,1385.48 1044.33,1385.4 1046.51,1385.32 1048.69,1385.24 1050.86,1385.16 1053.04,1385.07 1055.22,790.662 1057.39,790.574 1059.57,790.486 1061.75,790.397 1063.93,790.308 1066.1,790.219 1068.28,790.13 1070.46,790.041 1072.63,789.954 1074.81,789.867 1076.99,789.781 1079.17,789.696 1081.34,789.613 1083.52,789.532 1085.7,789.453 1087.87,789.376 1090.05,789.301 1092.23,789.229 1094.41,789.159 1096.58,789.093 1098.76,789.029 1100.94,788.969 1103.12,788.912 1105.29,788.858 1107.47,788.808 1109.65,788.762 1111.82,788.72 1114,788.682 1116.18,788.648 1118.36,788.618 1120.53,788.593 1122.71,788.571 1124.89,788.555 1127.06,788.542 1129.24,1382.86 1131.42,1382.85 1133.6,1382.85 1135.77,1382.86 1137.95,1382.87 1140.13,1382.88 1142.3,1382.9 1144.48,1382.92 1146.66,1382.95 1148.84,1382.98 1151.01,1383.02 1153.19,1383.06 1155.37,1383.1 1157.54,1383.15 1159.72,1383.2 1161.9,1383.26 1164.08,1383.32 1166.25,1383.38 1168.43,1383.44 1170.61,1383.51 1172.79,1383.58 1174.96,1383.65 1177.14,1383.73 1179.32,1383.81 1181.49,1383.89 1183.67,1383.97 1185.85,1384.05 1188.03,1384.14 1190.2,1384.23 1192.38,1384.31 1194.56,1384.4 1196.73,1384.49 1198.91,1384.58 1201.09,790.347 1203.27,790.436 1205.44,790.525 1207.62,790.613 1209.8,790.7 1211.97,790.786 1214.15,790.872 1216.33,790.955 1218.51,791.037 1220.68,791.117 1222.86,791.196 1225.04,791.271 1227.21,791.345 1229.39,791.415 1231.57,791.483 1233.75,791.548 1235.92,791.61 1238.1,791.669 1240.28,791.724 1242.46,791.775 1244.63,791.823 1246.81,791.867 1248.99,791.906 1251.16,791.942 1253.34,791.974 1255.52,792.001 1257.7,792.025 1259.87,792.043 1262.05,792.058 1264.23,792.068 1266.4,792.073 1268.58,792.074 1270.76,792.071 1272.94,1386.38 1275.11,1386.37 1277.29,1386.35 1279.47,1386.33 1281.64,1386.31 1283.82,1386.28 1286,1386.24 1288.18,1386.21 1290.35,1386.16 1292.53,1386.12 1294.71,1386.07 1296.88,1386.01 1299.06,1385.96 1301.24,1385.9 1303.42,1385.83 1305.59,1385.77 1307.77,1385.7 1309.95,1385.63 1312.13,1385.55 1314.3,1385.47 1316.48,1385.39 1318.66,1385.31 1320.83,1385.23 1323.01,1385.15 1325.19,1385.06 1327.37,1384.97 1329.54,1384.88 1331.72,1384.8 1333.9,1384.71 1336.07,1384.62 1338.25,1384.53 1340.43,1384.44 1342.61,1384.35 1344.78,1384.26 1346.96,789.856 1349.14,789.77 1351.31,789.686 1353.49,789.603 1355.67,789.522 1357.85,789.443 1360.02,789.366 1362.2,789.292 1364.38,789.22 1366.55,789.151 1368.73,789.084 1370.91,789.021 1373.09,788.961 1375.26,788.905 1377.44,788.852 1379.62,788.802 1381.8,788.757 1383.97,788.715 1386.15,788.678 1388.33,788.644 1390.5,788.615 1392.68,788.59 1394.86,788.569 1397.04,788.553 1399.21,788.541 1401.39,788.534 1403.57,788.531 1405.74,788.532 1407.92,788.538 1410.1,788.549 1412.28,788.564 1414.45,788.583 1416.63,788.607 1418.81,1382.96 1420.98,1382.99 1423.16,1383.02 1425.34,1383.06 1427.52,1383.11 1429.69,1383.16 1431.87,1383.21 1434.05,1383.26 1436.22,1383.32 1438.4,1383.39 1440.58,1383.45 1442.76,1383.52 1444.93,1383.59 1447.11,1383.66 1449.29,1383.74 1451.47,1383.82 1453.64,1383.9 1455.82,1383.98 1458,1384.07 1460.17,1384.15 1462.35,1384.24 1464.53,1384.32 1466.71,1384.41 1468.88,1384.5 1471.06,1384.59 1473.24,1384.68 1475.41,1384.77 1477.59,1384.86 1479.77,1384.95 1481.95,1385.03 1484.12,1385.12 1486.3,1385.2 1488.48,1385.29 1490.65,791.047 1492.83,791.127 1495.01,791.205 1497.19,791.281 1499.36,791.354 1501.54,791.424 1503.72,791.492 1505.89,791.556 1508.07,791.618 1510.25,791.676 1512.43,791.73 1514.6,791.781 1516.78,791.828 1518.96,791.872 1521.14,791.911 1523.31,791.946 1525.49,791.978 1527.67,792.004 1529.84,792.027 1532.02,792.045 1534.2,792.059 1536.38,792.069 1538.55,792.073 1540.73,792.074 1542.91,792.07 1545.08,792.061 1547.26,792.048 1549.44,792.031 1551.62,792.009 1553.79,791.983 1555.97,791.953 1558.15,791.918 1560.32,791.879 1562.5,791.837 1564.68,1386.11 1566.86,1386.06 1569.03,1386.01 1571.21,1385.95 1573.39,1385.89 1575.56,1385.83 1577.74,1385.76 1579.92,1385.69 1582.1,1385.62 1584.27,1385.54 1586.45,1385.46 1588.63,1385.38 1590.81,1385.3 1592.98,1385.22 1595.16,1385.13 1597.34,1385.05 1599.51,1384.96 1601.69,1384.87 1603.87,1384.79 1606.05,1384.7 1608.22,1384.61 1610.4,1384.52 1612.58,1384.43 1614.75,1384.34 1616.93,1384.25 1619.11,1384.17 1621.29,1384.08 1623.46,1384 1625.64,1383.91 1627.82,1383.83 1629.99,1383.75 1632.17,1383.68 1634.35,1383.6 1636.53,789.211 1638.7,789.142 1640.88,789.076 1643.06,789.014 1645.24,788.954 1647.41,788.898 1649.59,788.845 1651.77,788.797 1653.94,788.751 1656.12,788.71 1658.3,788.673 1660.48,788.64 1662.65,788.612 1664.83,788.587 1667.01,788.567 1669.18,788.551 1671.36,788.54 1673.54,788.533 1675.72,788.531 1677.89,788.533 1680.07,788.539 1682.25,788.55 1684.42,788.566 1686.6,788.586 1688.78,788.61 1690.96,788.638 1693.13,788.671 1695.31,788.708 1697.49,788.749 1699.66,788.794 1701.84,788.842 1704.02,788.895 1706.2,788.95 1708.37,1383.33 1710.55,1383.39 1712.73,1383.46 1714.91,1383.53 1717.08,1383.6 1719.26,1383.67 1721.44,1383.75 1723.61,1383.83 1725.79,1383.91 1727.97,1383.99 1730.15,1384.08 1732.32,1384.16 1734.5,1384.25 1736.68,1384.34 1738.85,1384.42 1741.03,1384.51 1743.21,1384.6 1745.39,1384.69 1747.56,1384.78 1749.74,1384.87 1751.92,1384.96 1754.09,1385.04 1756.27,1385.13 1758.45,1385.21 1760.63,1385.3 1762.8,1385.38 1764.98,1385.46 1767.16,1385.54 1769.33,1385.61 1771.51,1385.68 1773.69,1385.75 1775.87,1385.82 1778.04,1385.89 1780.22,791.625 1782.4,791.683 1784.58,791.737 1786.75,791.787 1788.93,791.834 1791.11,791.877 1793.28,791.916 1795.46,791.951 1797.64,791.981 1799.82,792.008 1801.99,792.03 1804.17,792.047 1806.35,792.061 1808.52,792.069 1810.7,792.074 1812.88,792.074 1815.06,792.069 1817.23,792.06 1819.41,792.046 1821.59,792.028 1823.76,792.006 1825.94,791.979 1828.12,791.949 1830.3,791.913 1832.47,791.874 1834.65,791.831 1836.83,791.784 1839,791.734 1841.18,791.679 1843.36,791.621 1845.54,791.56 1847.71,791.496 1849.89,791.428 1852.07,791.358 1854.25,1385.61 1856.42,1385.53 1858.6,1385.45 1860.78,1385.37 1862.95,1385.29 1865.13,1385.21 1867.31,1385.12 1869.49,1385.04 1871.66,1384.95 1873.84,1384.86 1876.02,1384.77 1878.19,1384.69 1880.37,1384.6 1882.55,1384.51 1884.73,1384.42 1886.9,1384.33 1889.08,1384.24 1891.26,1384.16 1893.43,1384.07 1895.61,1383.99 1897.79,1383.9 1899.97,1383.82 1902.14,1383.75 1904.32,1383.67 1906.5,1383.6 1908.67,1383.52 1910.85,1383.46 1913.03,1383.39 1915.21,1383.33 1917.38,1383.27 1919.56,1383.21 1921.74,1383.16 1923.92,1383.11 1926.09,788.746 1928.27,788.705 1930.45,788.669 1932.62,788.636 1934.8,788.608 1936.98,788.584 1939.16,788.565 1941.33,788.549 1943.51,788.539 1945.69,788.532 1947.86,788.531 1950.04,788.533 1952.22,788.54 1954.4,788.552 1956.57,788.568 1958.75,788.588 1960.93,788.613 1963.1,788.642 1965.28,788.675 1967.46,788.713 1969.64,788.754 1971.81,788.799 1973.99,788.849 1976.17,788.901 1978.34,788.958 1980.52,789.017 1982.7,789.08 1984.88,789.146 1987.05,789.215 1989.23,789.287 1991.41,789.362 1993.59,789.438 1995.76,789.517 1997.94,1383.92 2000.12,1384 2002.29,1384.09 2004.47,1384.17 2006.65,1384.26 2008.83,1384.35 2011,1384.43 2013.18,1384.52 2015.36,1384.61 2017.53,1384.7 2019.71,1384.79 2021.89,1384.88 2024.07,1384.97 2026.24,1385.05 2028.42,1385.14 2030.6,1385.22 2032.77,1385.31 2034.95,1385.39 2037.13,1385.47 2039.31,1385.55 2041.48,1385.62 2043.66,1385.69 2045.84,1385.76 2048.01,1385.83 2050.19,1385.89 2052.37,1385.95 2054.55,1386.01 2056.72,1386.06 2058.9,1386.11 2061.08,1386.16 2063.26,1386.2 2065.43,1386.24 2067.61,1386.28 2069.79,1386.31 2071.96,792.011 2074.14,792.032 2076.32,792.049 2078.5,792.062 2080.67,792.07 2082.85,792.074 2085.03,792.073 2087.2,792.068 2089.38,792.058 2091.56,792.044 2093.74,792.026 2095.91,792.003 2098.09,791.976 2100.27,791.944 2102.44,791.909 2104.62,791.869 2106.8,791.826 2108.98,791.778 2111.15,791.727 2113.33,791.672 2115.51,791.614 2117.68,791.552 2119.86,791.488 2122.04,791.42 2124.22,791.349 2126.39,791.276 2128.57,791.2 2130.75,791.122 2132.93,791.042 2135.1,790.96 2137.28,790.877 2139.46,790.792 2141.63,790.706 2143.81,1384.94 2145.99,1384.85 2148.17,1384.76 2150.34,1384.67 2152.52,1384.58 2154.7,1384.5 2156.87,1384.41 2159.05,1384.32 2161.23,1384.23 2163.41,1384.15 2165.58,1384.06 2167.76,1383.98 2169.94,1383.89 2172.11,1383.81 2174.29,1383.74 2176.47,1383.66 2178.65,1383.59 2180.82,1383.52 2183,1383.45 2185.18,1383.38 2187.35,1383.32 2189.53,1383.26 2191.71,1383.21 2193.89,1383.15 2196.06,1383.11 2198.24,1383.06 2200.42,1383.02 2202.6,1382.99 2204.77,1382.95 2206.95,1382.93 2209.13,1382.9 2211.3,1382.88 2213.48,1382.87 2215.66,788.538 2217.84,788.532 2220.01,788.531 2222.19,788.534 2224.37,788.542 2226.54,788.554 2228.72,788.57 2230.9,788.591 2233.08,788.617 2235.25,788.646 2237.43,788.68 2239.61,788.718 2241.78,788.76 2243.96,788.805 2246.14,788.855 2248.32,788.908 2250.49,788.965 2252.67,789.025 2254.85,789.089 2257.02,789.155 2259.2,789.224 2261.38,789.296 2263.56,789.371 2265.73,789.448 2267.91,789.527 2270.09,789.608 2272.27,789.691 2274.44,789.776 2276.62,789.861 2278.8,789.948 2280.97,790.036 2283.15,790.124 2285.33,790.213 2287.51,790.302 "></polyline>
</svg>